<?xml version="1.0" standalone="no"?><!DOCTYPE svg PUBLIC "-//W3C//DTD SVG 1.1//EN" "http://www.w3.org/Graphics/SVG/1.1/DTD/svg11.dtd"><svg t="1568881889085" class="icon" viewBox="0 0 1024 1024" version="1.1" xmlns="http://www.w3.org/2000/svg" p-id="4747" xmlns:xlink="http://www.w3.org/1999/xlink" width="48" height="48"><defs><style type="text/css"></style></defs><path d="M959.749891 148.8265l-44.336703-0.698716c-1.016314 0-100.424539-2.032628-203.008747-41.732399C607.08889 65.552261 539.249922 18.801811 538.614726 18.357174l-26.741765-18.420694-26.614726 18.420694c-0.635196 0.444637-68.474164 47.258607-173.789716 87.974691a661.175858 661.175858 0 0 1-202.881707 41.732399l-44.527262 0.762236v430.409031c0 216.093791 291.301036 444.57391 447.94045 444.57391 156.766454 0 448.00397-228.480119 448.00397-444.57391l-0.254079-430.409031z m-697.318528 51.7685a3415.069537 3415.069537 0 0 1 102.584207 107.538739l-43.765027 36.968426A1366.243781 1366.243781 0 0 0 224.256064 233.752249l38.175299-33.157249z m-3.747659 502.249737c12.513368-17.467899 18.738292-38.365858 18.738292-62.503319V444.51039H201.770114v-45.035419h123.863283v243.915389c19.182929-18.293654 42.939272-42.939272 71.332548-73.809813 1.65151 14.609516 5.589728 32.712611 11.878171 54.436325-50.434588 49.989951-88.609888 89.816761-114.462378 119.48043l-35.698034-40.652565z m563.546182 70.125674H359.997519v-46.305812h86.958377V380.736679h48.147882v345.8644H594.575523V269.386763H394.42516v-46.242293h417.832144v46.305812h-167.628311v188.272192h145.142361v46.305812h-145.142361v222.636313h177.664413v46.305812z" fill="#13227a" p-id="4748"></path></svg>