<?xml version="1.0" standalone="no"?><!DOCTYPE svg PUBLIC "-//W3C//DTD SVG 1.1//EN" "http://www.w3.org/Graphics/SVG/1.1/DTD/svg11.dtd"><svg t="1568881763584" class="icon" viewBox="0 0 1024 1024" version="1.1" xmlns="http://www.w3.org/2000/svg" p-id="3915" xmlns:xlink="http://www.w3.org/1999/xlink" width="48" height="48"><defs><style type="text/css"></style></defs><path d="M844.2368 197.632a92.245333 92.245333 0 0 1 92.245333 92.245333v461.2608a92.245333 92.245333 0 0 1-92.245333 92.245334H175.4112a92.279467 92.279467 0 0 1-92.2624-92.245334V289.877333a92.279467 92.279467 0 0 1 92.2624-92.2624h668.8256zM244.599467 543.573333h161.450666a23.057067 23.057067 0 0 0 0-46.1312h-161.450666a23.057067 23.057067 0 1 0 0 46.1312z m0-115.319466h230.621866a23.057067 23.057067 0 0 0 0-46.1312H244.599467a23.057067 23.057067 0 1 0 0 46.1312z m530.466133 207.5648H244.599467a23.057067 23.057067 0 1 0 0 46.1312h530.466133a23.057067 23.057067 0 0 0 0-46.1312z m-49.4592-176.298667a69.1712 69.1712 0 1 0-112.008533-54.340267c0 22.050133 10.3424 41.6768 26.402133 54.340267a115.3536 115.3536 0 0 0-72.533333 107.1104h230.638933a115.336533 115.336533 0 0 0-72.4992-107.1104z" p-id="3916" fill="#409EFF"></path></svg>