<?xml version="1.0" standalone="no"?><!DOCTYPE svg PUBLIC "-//W3C//DTD SVG 1.1//EN" "http://www.w3.org/Graphics/SVG/1.1/DTD/svg11.dtd"><svg t="1568963740829" class="icon" viewBox="0 0 1024 1024" version="1.1" xmlns="http://www.w3.org/2000/svg" p-id="18534" xmlns:xlink="http://www.w3.org/1999/xlink" width="200" height="200"><defs><style type="text/css"></style></defs><path d="M512 43.306667c-259.370667 0-469.162667 208.597333-469.162667 465.92S253.098667 974.72 512 974.72c258.901333 0 469.162667-208.64 469.162667-465.493333 0-257.322667-209.792-465.92-469.162667-465.92z" fill="#3385FF" p-id="18535"></path><path d="M475.306667 288.810667H342.272c-37.674667 0-66.261333 28.373333-66.261333 65.706666v274.858667c0 6.613333 4.266667 10.88 10.965333 10.88h21.930667c6.656 0 10.965333-4.266667 10.965333-10.88v-287.573333c0-4.266667 4.266667-9.002667 9.045333-9.002667h115.370667c4.266667 0 9.088 4.266667 9.088 8.96v288.085333c0 6.613333 4.266667 10.88 10.965333 10.88h21.930667c6.656 0 10.965333-4.266667 10.965333-10.88V311.04a21.589333 21.589333 0 0 0-21.930666-22.229333z m13.312 417.706666c-9.045333-2.389333-21.930667-9.002667-41.941334-21.76-41.941333-33.152-40.064-65.792-40.064-65.792V387.669333c0-6.613333-4.266667-10.88-10.965333-10.88H373.76c-6.656 0-10.965333 4.266667-10.965333 10.88l-2.389334 230.826667s0 43.989333-30.976 68.138667c-17.621333 10.88-35.285333 17.493333-44.373333 19.84-4.266667 0-9.002667 4.266667-9.002667 8.96v21.76c0 6.656 6.656 10.922667 13.312 10.922666 15.786667-2.389333 40.106667-6.613333 55.338667-17.493333 35.285333-21.76 41.941333-43.989333 41.941333-43.989333s6.698667 19.84 44.373334 41.6c20.010667 13.226667 40.021333 17.493333 53.333333 17.493333 6.698667 0 13.397333-4.266667 13.397333-10.88v-21.76c0-2.346667-4.778667-4.266667-9.088-6.613333z m241.749333-197.76h-99.669333V399.018667h99.669333c6.656 0 10.965333-4.266667 10.965333-10.88v-21.76c0-6.613333-4.266667-10.88-10.965333-10.88h-99.669333V299.690667c0-6.656-4.266667-10.88-10.965334-10.88h-21.930666c-6.656 0-10.965333 4.266667-10.965334 10.88v208.597333h-33.365333c-6.656 0-10.965333 4.266667-10.965333 10.88v219.946667c0 6.613333 4.266667 10.88 10.965333 10.88h122.026667a66.133333 66.133333 0 0 0 66.304-65.706667v-165.12a11.093333 11.093333 0 0 0-11.434667-10.410667z m-33.365333 175.957334a21.76 21.76 0 0 1-21.930667 21.76H593.066667c-4.266667 0-6.698667-2.346667-6.698667-6.613334V559.36c0-4.266667 2.389333-6.613333 6.698667-6.613333h97.28c4.266667 0 6.656 2.346667 6.656 6.613333v125.354667z" fill="#FFFFFF" p-id="18536"></path></svg>