<?xml version="1.0" standalone="no"?><!DOCTYPE svg PUBLIC "-//W3C//DTD SVG 1.1//EN" "http://www.w3.org/Graphics/SVG/1.1/DTD/svg11.dtd"><svg t="1571131165864" class="icon" viewBox="0 0 1024 1024" version="1.1" xmlns="http://www.w3.org/2000/svg" p-id="7620" xmlns:xlink="http://www.w3.org/1999/xlink" width="200" height="200"><defs><style type="text/css"></style></defs><path d="M747.36 302.49c10.65-2.76 22.65 3.06 27.12 13.1 4.85 9.64 1.37 21.13-4.31 29.6-15.84 24.69-42.22 40.06-68.52 51.46-30.41 12.46-64.64 22.35-97.28 12.88-2.62-0.34-2.64-4.04 0.2-3.91 53.77-7.69 98.64-45.37 126.64-90.4 3.36-6.21 9.15-11.22 16.15-12.73z" p-id="7621"></path><path d="M828.46 310.42c6.94-13.03 28.67-10.41 32.27 3.9 9.82 35 8.29 72.13 2.45 107.68-6.33 29.82-18.62 58.37-35.35 83.82-19.14 27.48-44.21 50.67-72.54 68.44-6.28 3.41-12.68 7.9-15.18 14.93-2.72 7.19 0.33 15.14 4.95 20.81 13.25 14.8 30.42 25.63 48.58 33.41 37.21 15.75 78.32 20.55 118.44 18.64 6.51-0.69 11.06 7.86 6.69 12.77-60.72 53.29-139.31 84.87-219.7 91-99.65 7.26-203.04-24.08-278.5-90.41-35.47-30.58-64-68.13-90.6-106.43-12.17-17.4-25.07-35.34-43.93-46.01-15.76-9.94-35.46-13.58-53.6-9.08 33.79 33.74 66.68 69.12 91.6 110.1 10.02 16.97 19.11 35.23 21.24 55.09 2.31 38.34-15.18 77.11-45.18 101.03-28.43 23.39-67.97 32.27-103.7 23.44-32.68-7.69-61.47-29.94-77.54-59.37-11.08-20.04-16.61-43.31-14.91-66.2 2.67-21.64 13.27-41.26 24.48-59.6 23.47-36.55 52.69-69.02 83.42-99.57 1.17-1.09 1.72-2.6 2.43-3.98-10.65-0.73-22.72-2.44-29.92-11.22-1.56-1.75-3.72-5.61-0.44-6.8 11.78-2.74 23.43 2.57 33.42 8.34-3.27-7.08-2.27-16.83 4.52-21.43 6.12-1.98 8.39 5.98 9.42 10.45 14.63-14.98 35.69-24.62 44.29-44.73 7.78-20.14 13.88-41.13 25.08-59.77 16.16-28.53 42.46-50.71 72.49-63.52 32.66-13.08 70.17-13.69 103.18-1.48 17.43 6.52 33.92 15.83 48.06 27.96 18.99 16.37 28.38 41.32 48.74 56.29 13.68 10.25 31.02 14.33 47.89 14.45 41.97 0.98 83.93-9.83 120.9-29.51 35.93-19.19 64.09-49.96 86.55-83.44M340.35 418.43c-14.63 2.31-24.96 18.54-20.72 32.77 3.53 14.41 20.57 23.44 34.42 17.89 12.52-4.23 20.13-18.86 16.44-31.54-3.16-12.94-17.09-21.73-30.14-19.12z" p-id="7622"></path></svg>