<?xml version="1.0" standalone="no"?><!DOCTYPE svg PUBLIC "-//W3C//DTD SVG 1.1//EN" "http://www.w3.org/Graphics/SVG/1.1/DTD/svg11.dtd"><svg t="1568882951036" class="icon" viewBox="0 0 1024 1024" version="1.1" xmlns="http://www.w3.org/2000/svg" p-id="9532" xmlns:xlink="http://www.w3.org/1999/xlink" width="48" height="48"><defs><style type="text/css"></style></defs><path d="M136.533333 0h750.933334a136.533333 136.533333 0 0 1 136.533333 136.533333v750.933334a136.533333 136.533333 0 0 1-136.533333 136.533333H136.533333a136.533333 136.533333 0 0 1-136.533333-136.533333V136.533333a136.533333 136.533333 0 0 1 136.533333-136.533333z" fill="#6FACFF" p-id="9533"></path><path d="M436.087467 419.293867v326.587733h-41.710934v87.8592h507.630934v-87.8592h-146.397867v-238.728533h146.397867v-87.8592h-146.397867V280.849067h146.397867V192.989867H394.376533v87.8592h238.762667v465.032533h-73.659733v-326.587733h-123.392zM187.630933 324.3008H333.141333L268.356267 190.327467H122.811733l64.8192 133.973333z m110.011734 51.473067H121.9584v87.8592h52.3264v268.868266a96.938667 96.938667 0 0 0 97.621333 97.655467h71.8848l33.723734-76.322133H325.154133a26.453333 26.453333 0 0 1-19.490133-7.9872 26.5216 26.5216 0 0 1-7.9872-19.524267v-350.549333z" fill="#FFFFFF" p-id="9534"></path></svg>