<?xml version="1.0" standalone="no"?><!DOCTYPE svg PUBLIC "-//W3C//DTD SVG 1.1//EN" "http://www.w3.org/Graphics/SVG/1.1/DTD/svg11.dtd"><svg t="1569307134131" class="icon" viewBox="0 0 1024 1024" version="1.1" xmlns="http://www.w3.org/2000/svg" p-id="15749" xmlns:xlink="http://www.w3.org/1999/xlink" width="200" height="200"><defs><style type="text/css"></style></defs><path d="M711.378824 973.101176H314.428235c-29.615686 0-53.609412-23.993725-53.609411-53.609411V112.840784c0-29.615686 23.993725-53.609412 53.609411-53.609411h396.950589c29.615686 0 53.709804 23.993725 53.709803 53.609411V919.592157c0 29.515294-24.094118 53.50902-53.709803 53.509019z m0 0" fill="#424A60" p-id="15750"></path><path d="M260.818824 153.700392h504.269803V784.062745H260.818824z" fill="#E7ECED" p-id="15751"></path><path d="M560.188235 878.632157c0 26.101961-21.182745 47.284706-47.284706 47.284706-26.202353 0-47.385098-21.182745-47.385098-47.284706 0-26.202353 21.182745-47.385098 47.385098-47.385098 26.101961 0.100392 47.284706 21.182745 47.284706 47.385098z m0 0M513.003922 122.177255h-63.046275c-8.83451 0-15.761569-7.027451-15.761569-15.761569s7.027451-15.661176 15.761569-15.661176H513.003922c8.734118 0 15.761569 7.027451 15.761568 15.661176 0 8.734118-7.127843 15.761569-15.761568 15.761569z m0 0M575.949804 122.177255H560.188235c-8.734118 0-15.761569-7.027451-15.761568-15.761569s7.127843-15.661176 15.761568-15.661176h15.761569c8.734118 0 15.761569 7.027451 15.761569 15.661176 0.100392 8.734118-7.027451 15.761569-15.761569 15.761569z m0 0" fill="#262B35" p-id="15752"></path><path d="M543.924706 327.278431h-61.841569c-9.035294 0-16.363922-7.328627-16.363921-16.263529v-61.841569c0-9.035294 7.42902-16.363922 16.363921-16.363921h61.841569c9.035294 0 16.263529 7.328627 16.263529 16.363921v61.841569c0 9.035294-7.328627 16.263529-16.263529 16.263529z m0 0" fill="#3083C9" p-id="15753"></path><path d="M401.970196 327.278431h-61.841569c-9.035294 0-16.363922-7.328627-16.363921-16.263529v-61.841569c0-9.035294 7.328627-16.363922 16.363921-16.363921h61.841569c9.035294 0 16.363922 7.328627 16.363922 16.363921v61.841569c0.100392 9.035294-7.228235 16.263529-16.363922 16.263529z m0 0" fill="#88C057" p-id="15754"></path><path d="M685.678431 327.278431h-61.841568c-9.035294 0-16.263529-7.328627-16.26353-16.263529v-61.841569c0-9.035294 7.328627-16.363922 16.26353-16.363921H685.678431c9.035294 0 16.263529 7.328627 16.26353 16.363921v61.841569c0.100392 9.035294-7.228235 16.263529-16.26353 16.263529z m0 0" fill="#DC691D" p-id="15755"></path><path d="M543.924706 468.931765h-61.841569c-9.035294 0-16.363922-7.328627-16.363921-16.363922v-61.841568c0-9.035294 7.42902-16.363922 16.363921-16.363922h61.841569c9.035294 0 16.263529 7.328627 16.263529 16.363922v61.841568c0 9.035294-7.328627 16.363922-16.263529 16.363922z m0 0" fill="#EBBA16" p-id="15756"></path><path d="M401.970196 468.931765h-61.841569c-9.035294 0-16.363922-7.328627-16.363921-16.363922v-61.841568c0-9.035294 7.328627-16.363922 16.363921-16.363922h61.841569c9.035294 0 16.363922 7.328627 16.363922 16.363922v61.841568c0.100392 9.035294-7.228235 16.363922-16.363922 16.363922z m0 0" fill="#7383BF" p-id="15757"></path><path d="M685.678431 468.931765h-61.841568c-9.035294 0-16.263529-7.328627-16.26353-16.363922v-61.841568c0-9.035294 7.328627-16.363922 16.26353-16.363922H685.678431c9.035294 0 16.263529 7.328627 16.26353 16.363922v61.841568c0.100392 9.035294-7.228235 16.363922-16.26353 16.363922z m0 0" fill="#DD352E" p-id="15758"></path><path d="M543.924706 610.68549h-61.841569c-9.035294 0-16.363922-7.328627-16.363921-16.363921v-61.841569c0-9.035294 7.42902-16.363922 16.363921-16.363922h61.841569c9.035294 0 16.263529 7.328627 16.263529 16.363922V594.321569c0 9.135686-7.328627 16.363922-16.263529 16.363921z m0 0" fill="#A485BE" p-id="15759"></path><path d="M401.970196 610.68549h-61.841569c-9.035294 0-16.363922-7.328627-16.363921-16.363921v-61.841569c0-9.035294 7.328627-16.363922 16.363921-16.363922h61.841569c9.035294 0 16.363922 7.328627 16.363922 16.363922V594.321569c0.100392 9.135686-7.228235 16.363922-16.363922 16.363921z m0 0" fill="#EA6248" p-id="15760"></path><path d="M685.678431 610.68549h-61.841568c-9.035294 0-16.263529-7.328627-16.26353-16.363921v-61.841569c0-9.035294 7.328627-16.363922 16.26353-16.363922H685.678431c9.035294 0 16.263529 7.328627 16.26353 16.363922V594.321569c0.100392 9.135686-7.228235 16.363922-16.26353 16.363921z m0 0" fill="#25AE88" p-id="15761"></path></svg>