<?xml version="1.0" standalone="no"?><!DOCTYPE svg PUBLIC "-//W3C//DTD SVG 1.1//EN" "http://www.w3.org/Graphics/SVG/1.1/DTD/svg11.dtd"><svg t="1569306691246" class="icon" viewBox="0 0 1024 1024" version="1.1" xmlns="http://www.w3.org/2000/svg" p-id="8687" xmlns:xlink="http://www.w3.org/1999/xlink" width="200" height="200"><defs><style type="text/css"></style></defs><path d="M943.390701 0H136.861203a74.556326 74.556326 0 0 0-74.469024 74.469024v82.340798a46.561328 46.561328 0 0 0 93.122656 0V93.122655h769.222234v837.75469H155.514835V798.817779a46.561328 46.561328 0 0 0-93.122656 0v150.713197a74.556326 74.556326 0 0 0 74.469024 74.469024h806.529498a74.556326 74.556326 0 0 0 74.469024-74.469024V74.469024A74.556326 74.556326 0 0 0 943.390701 0z" fill="#1296db" p-id="8688"></path><path d="M52.701603 350.461294h115.108332a46.561328 46.561328 0 0 0 0-93.122656H52.701603a46.561328 46.561328 0 0 0 0 93.122656zM52.701603 523.349324h115.108332a46.561328 46.561328 0 0 0 0-93.122656H52.701603a46.561328 46.561328 0 0 0 0 93.122656zM214.371263 648.279186a46.561328 46.561328 0 0 0-46.561328-46.561328H52.701603a46.561328 46.561328 0 0 0 0 93.122656h115.108332a46.561328 46.561328 0 0 0 46.561328-46.561328z" fill="#1296db" p-id="8689"></path><path d="M352.905763 693.181767a46.561328 46.561328 0 0 0 93.122656 0 131.593952 131.593952 0 1 1 263.173354 0 46.561328 46.561328 0 0 0 93.122656 0 224.745709 224.745709 0 0 0-105.112198-190.159373 155.311129 155.311129 0 1 0-239.19427 0 224.745709 224.745709 0 0 0-105.112198 190.159373z m224.702058-351.319769A62.188473 62.188473 0 1 1 515.404797 404.050472a62.261225 62.261225 0 0 1 62.203024-62.188474z" fill="#1296db" p-id="8690"></path></svg>