<?xml version="1.0" standalone="no"?><!DOCTYPE svg PUBLIC "-//W3C//DTD SVG 1.1//EN" "http://www.w3.org/Graphics/SVG/1.1/DTD/svg11.dtd"><svg t="1571131368817" class="icon" viewBox="0 0 4502 1024" version="1.1" xmlns="http://www.w3.org/2000/svg" p-id="2025" xmlns:xlink="http://www.w3.org/1999/xlink" width="879.296875" height="200"><defs><style type="text/css"></style></defs><path d="M4495.96066 190.44889401h-393.036881l-7.463294 71.03617798h393.1268l7.373375-71.03617798zM4023.345276 167.609413l-64.74183399-23.109237a318.763611 318.763611 0 0 1-167.60941301 166.53038201l22.74956101 64.47207601a401.57920599 401.57920599 0 0 0 209.60168599-207.89322102zM4059.312961 474.953284h245.38953299l-28.864068 277.400773a64.20231801 64.20231801 0 0 1-62.044257 56.828943h-97.922023l-7.37337499 71.126097h112.30909698a128.314717 128.314717 0 0 0 124.08851401-113.657885l30.30277499-291.697928h112.30909701l7.46329501-71.126097h-428.285213zM3768.15454901 531.51246899l22.749561 64.47207601a505.88549399 505.88549399 0 0 0 77.78011899-43.07130301l-33.98946298 327.39585501h70.13698698l40.46364601-389.61995101a399.06146798 399.06146798 0 0 0 84.70389898-116.89497699l-64.74183399-23.01931799c-35.518089 77.95995801-120.311907 147.10783298-197.10291499 180.73761798zM3560.171409 482.05690201a128.314717 128.314717 0 0 0 124.08851401-113.74780501l18.52335798-177.95012299h-70.22690599l-16.994731 163.65296801a64.20231801 64.20231801 0 0 1-62.04425701 56.82894298h-140.363892l26.97576401-263.103618h-70.226906l-26.975764 263.103618h-182.44608301l22.83947999-220.48191099h-70.13698597l-30.30277501 291.60800899h252.67298899l-33.27010899 320.02248h-210.59079699l22.92939899-220.48191099h-70.136986L3014.18194601 873.11556h533.40077299a128.494556 128.494556 0 0 0 124.17843301-113.657885l18.43343898-177.95012299h-70.136987l-17.08464998 163.65296799a64.20231801 64.20231801 0 0 1-62.04425701 56.828943h-168.418686l33.270108-320.02248zM1677.53284199 496.17421799h379.00948301l7.463295-71.12609699h-379.099403l-7.37337501 71.12609701zM1951.696523 154.930804H1860.428521c-47.65718301 70.946259-110.42079399 117.434492-189.81945898 137.576397l10.88022498 68.608359a390.78890099 390.78890099 0 0 0 211.579909-134.87882l6.29434499-7.103617 4.85563703 7.103617a295.924131 295.924131 0 0 0 183.52511397 134.87882l25.08746101-68.608359c-75.17246201-20.141904-128.04496001-66.630137-161.13523-137.576397zM1339.52651899 844.880927h119.32279601a128.314717 128.314717 0 0 0 124.088514-113.567966l54.670882-526.47699299h-231.63189299z m129.30382901-568.918862h91.268001l-45.85879899 440.60414501a64.112399 64.112399 0 0 1-62.044257 56.73902398h-35.15841201zM1638.328065 873.20547899h266.79030499a128.314717 128.314717 0 0 0 124.08851401-113.65788498l17.983843-170.84650501h-379.27924101z m92.43695101-213.378292h238.64559199l-8.99192202 85.42325201a64.20231801 64.20231801 0 0 1-62.04425698 56.82894299h-182.44608301zM2605.67896002 442.76220599h-75.35230002a479.80892201 479.80892201 0 0 1-84.88373799 110.78047101l-8.991921 90.81840501a407.423955 407.423955 0 0 0 102.59782199-95.134528h314.17773101a414.16789601 414.16789601 0 0 1-141.80259901 168.14892898l-89.91921299-133.53003195-58.35757001 44.33017196 84.88373801 125.88689899a555.341061 555.341061 0 0 1-227.675448 51.07411301l-7.283456 71.036178a668.639269 668.639269 0 0 0 206.81418999-35.068493c144.320337-51.523709 251.773797-150.07516699 309.412013-291.787847l7.19353701-71.03617801h-349.78574c10.25079001-17.714085 16.63505401-30.75237101 18.97295401-35.518089zM2459.65015798 421.451352h372.35546202c60.965227 0 115.546189-50.894275 121.930453-113.657885l14.47699299-141.982438h-482.686336z m363.63329802-184.60414399h68.96803701l-5.84474901 56.73902299a63.482965 63.482965 0 0 1-60.965227 56.82894299h-13.39796201z m-137.936073-2e-8h68.968037l-11.599579 113.47804701h-68.968036z m-137.846154 0h68.87811801l-11.14998301 113.47804701h-68.968036zM2226.3098 201.32911802l-71.935371 639.05584898h103.407095c60.965227 0 115.546189-50.894275 121.93045399-113.657886l53.95152701-525.39796301z m85.69301001 511.19072698a63.482965 63.482965 0 0 1-60.96522702 56.828943h-13.757639l50.71443601-497.07340998h68.968037zM550.75518101 541.85317901c210.680717 0 399.511064-170.84650501 421.63119097-381.61714102q6.20442599-58.177731 8.99192102-87.22163699l7.55321401-71.93537h-59.25676201l-16.724973 159.246926c-18.52335799 177.950123-178.04004199 322.18054102-355.990165 322.18054099-210.770636 0-399.511064 170.84650501-421.63119099 381.61714101l-16.81489299 159.24692701h58.89708498L194.225501 864.123639c19.152792-178.04004199 178.48963801-322.27046002 356.52968001-322.27045999z" p-id="2026"></path><path d="M563.16403198 423.249737c145.309449 0 275.42254999-117.70425001 290.70881702-263.01369901l6.564102-62.94344899 4.67579901-44.95960703 5.485072-51.79346697h-59.25676101l-16.724974 159.24692701c-11.86933599 112.57885502-112.66877401 203.756937-224.79803299 203.75693699a531.782227 531.782227 0 0 0-213.018616 44.95960699l4.67579899-2.158062L404.18686298 0h-59.61643798L298.531788 437.72672999l1.61854601-0.80927298a578.809975 578.809975 0 0 0-76.16157401 52.51281999c3.596769-2.87741499 7.10361801-5.844749 10.79030599-8.991921L285.313664 0.89919199h-59.346681l-56.739024 539.515279 8.27256803-8.36248599a578.450299 578.450299 0 0 0-79.30874603 99.81032598c0.899192-1.528627 1.708465-3.057253 2.697576-4.49595998L166.710221 0.539515h-59.256761l-90.72848602 863.22444701L0 1023.37056601h59.25676199l5.48507202-51.79346701 6.56410199-62.94345 4.67579901-44.42009101c25.62697599-243.59114901 243.770987-440.96382198 487.182297-440.96382099z m-229.02423598-3.50685001l-6.65402201 3.23709201zM198.09202699 512.62943401c-5.035476 4.58588-9.981033 8.991921-14.74675099 13.93747899 4.76571801-4.675799 9.711275-9.35159801 14.74675101-13.93747901z m20.59150001-17.983842zM55.929751 712.87952199l3.506849-7.822971zM20.681419 834.899895c0.539515-3.057253 1.16895001-6.024587 1.70846501-8.99192201-0.539515 2.96733399-1.16895001 5.934668-1.70846501 8.99192201z m5.66490999-29.043906z m7.19353801-29.313664c0.899192-3.057253 1.708465-6.20442599 2.607657-8.991921-0.71935401 2.787496-1.528627 5.934668-2.607657 8.991921z m10.43062801-32.910432c0.449596-1.258869 0.809273-2.607657 1.25886899-3.866526-0.26975799 1.258869-0.62943401 2.607657-1.07903001 3.866526z m23.82859199-57.18861901l4.58588-8.991922z m18.523358-34.97857399l-4.85563801 8.991921z" p-id="2027"></path><path d="M1107.714787 0.989111h-59.25676101l-5.485072 51.79346697-4.67579899 44.95960703-6.654022 62.94344899c-25.537057 243.501229-243.681068 440.60414499-487.18229701 440.60414501-145.219529 0-275.332631 117.70425001-290.61889699 263.013698l-16.724974 159.246927h59.256762l16.724973-159.246927c11.86933599-112.57885502 112.66877401-203.756937 224.798033-203.756937a531.60238799 531.60238799 0 0 0 212.92869701-45.40920199l-4.58588 2.15806098-42.71162601 406.34492399h59.25676197l46.03863703-437.72672999-1.618546 0.80927302a578.98981399 578.98981399 0 0 0 75.981735-52.42290101c-3.506849 2.87741499-7.013699 5.75482999-10.610467 8.54232501l-50.53459802 480.79803297h59.25676202l56.739023-539.51527898-8.272567 8.36248701a579.43941003 579.43941003 0 0 0 79.218826-99.54056902l-2.51773802 4.22620301-65.82086399 626.826835h59.25676201l90.728486-863.224447z m-56.01966901 310.491044c-1.079031 2.607657-2.24798 5.125395-3.41692999 7.73305201 1.348788-2.607657 2.3379-4.85563799 3.41692999-7.73305201z m-12.04917499 26.52616699c-1.438707 2.96733399-2.96733399 6.024587-4.49596101 8.99192201 1.528627-2.96733399 3.057253-5.66490998 4.49596101-8.99192201zM773.66491001 604.52687001l6.56410299-3.147172z m136.04776999-92.88654703c4.945557-4.58588 9.89111299-8.991921 14.656832-13.93747798-4.76571801 4.76571801-9.621356 9.35159801-14.656832 13.93747801z m-20.681419 17.98384301c6.11450601-5.125395 12.13909401-10.25079001 17.983843-15.64594298-5.844749 5.485072-11.86933599 10.610467-17.983843 16.18545799z m136.94696198-165.36143299l-4.76571898 8.452406z m59.34668003-165.811029c0.539515-3.057253 1.16895001-6.024587 1.618546-8.99192199-0.449596 3.057253-1.348788 6.024587-1.34878801 9.08184099z m-23.01931801 86.052687l1.25886901-3.776607z m8.99192101-27.51528c0.989111-3.057253 1.798384-6.20442599 2.69757699-8.99192098-0.899192 2.87741499-1.708465 6.024587-2.69757699 9.08184098z m7.73305197-28.50439a406.79452101 406.79452101 0 0 0 0 0.089919z" p-id="2028"></path></svg>