<?xml version="1.0" standalone="no"?><!DOCTYPE svg PUBLIC "-//W3C//DTD SVG 1.1//EN" "http://www.w3.org/Graphics/SVG/1.1/DTD/svg11.dtd"><svg t="1568949673082" class="icon" viewBox="0 0 1024 1024" version="1.1" xmlns="http://www.w3.org/2000/svg" p-id="3217" xmlns:xlink="http://www.w3.org/1999/xlink" width="200" height="200"><defs><style type="text/css"></style></defs><path d="M0 0m128 0l768 0q128 0 128 128l0 768q0 128-128 128l-768 0q-128 0-128-128l0-768q0-128 128-128Z" fill="#F53415" p-id="3218"></path><path d="M471.253333 201.173333l-37.333333 93.653334 112.213333 112.426666h168.533334l64-54.4s9.6-17.92 18.133333-37.973333l-13.013333-56.96-11.733334-7.466667-117.546666-11.733333L597.333333 167.253333z" fill="#414141" p-id="3219"></path><path d="M797.866667 155.093333zM655.36 155.093333h142.506667v0.426667h-142.506667z" fill="#A6A6A7" p-id="3220"></path><path d="M655.36 155.52h142.506667v0.426667h-142.506667z" fill="#A5A5A6" p-id="3221"></path><path d="M655.36 155.946667h142.506667v0.426666h-142.506667z" fill="#A4A4A5" p-id="3222"></path><path d="M655.36 156.373333h142.506667v0.426667h-142.506667z" fill="#A3A3A4" p-id="3223"></path><path d="M655.36 156.8h142.506667v0.426667h-142.506667z" fill="#A2A2A3" p-id="3224"></path><path d="M655.36 157.226667h142.506667v0.426666h-142.506667z" fill="#A1A1A2" p-id="3225"></path><path d="M655.36 157.653333h142.506667v0.426667h-142.506667z" fill="#A0A0A1" p-id="3226"></path><path d="M655.36 158.08h142.506667v0.426667h-142.506667z" fill="#9F9FA0" p-id="3227"></path><path d="M655.36 158.506667h142.506667v0.426666h-142.506667z" fill="#9E9E9F" p-id="3228"></path><path d="M655.36 158.933333h142.506667v0.426667h-142.506667z" fill="#9D9D9E" p-id="3229"></path><path d="M655.36 159.36h142.506667v0.426667h-142.506667z" fill="#9C9C9D" p-id="3230"></path><path d="M655.36 159.786667h142.506667v0.426666h-142.506667z" fill="#9B9B9C" p-id="3231"></path><path d="M655.36 160h142.506667v0.426667h-142.506667z" fill="#9A9A9B" p-id="3232"></path><path d="M655.36 160.426667h142.506667v0.426666h-142.506667z" fill="#99999A" p-id="3233"></path><path d="M655.36 160.853333h142.506667v0.426667h-142.506667z" fill="#989899" p-id="3234"></path><path d="M655.36 161.28h142.506667v0.426667h-142.506667z" fill="#979798" p-id="3235"></path><path d="M655.36 161.706667h142.506667v0.426666h-142.506667z" fill="#969697" p-id="3236"></path><path d="M655.36 162.133333h142.506667v0.426667h-142.506667z" fill="#969596" p-id="3237"></path><path d="M655.36 162.56h142.506667v0.426667h-142.506667z" fill="#959495" p-id="3238"></path><path d="M655.36 162.986667h142.506667v0.426666h-142.506667z" fill="#949394" p-id="3239"></path><path d="M655.36 163.413333h142.506667v0.426667h-142.506667z" fill="#939293" p-id="3240"></path><path d="M655.36 163.84h142.506667v0.426667h-142.506667z" fill="#929192" p-id="3241"></path><path d="M655.36 164.266667h142.506667v0.426666h-142.506667z" fill="#919091" p-id="3242"></path><path d="M655.36 164.693333h142.506667v0.426667h-142.506667z" fill="#908F90" p-id="3243"></path><path d="M655.36 165.12h142.506667v0.426667h-142.506667z" fill="#8F8E8F" p-id="3244"></path><path d="M655.36 165.546667h142.506667v0.426666h-142.506667z" fill="#8E8D8E" p-id="3245"></path><path d="M655.36 165.973333h142.506667v0.426667h-142.506667z" fill="#8D8C8D" p-id="3246"></path><path d="M655.36 166.4h142.506667v0.426667h-142.506667z" fill="#8C8B8C" p-id="3247"></path><path d="M655.36 166.826667h142.506667v0.426666h-142.506667z" fill="#8B8A8B" p-id="3248"></path><path d="M655.36 167.04h142.506667v0.426667h-142.506667z" fill="#8A898A" p-id="3249"></path><path d="M655.36 167.466667h142.506667v0.426666h-142.506667z" fill="#898889" p-id="3250"></path><path d="M655.36 167.893333h142.506667v0.426667h-142.506667z" fill="#888788" p-id="3251"></path><path d="M655.36 168.32h142.506667v0.426667h-142.506667z" fill="#878687" p-id="3252"></path><path d="M655.36 168.746667h142.506667v0.426666h-142.506667z" fill="#868586" p-id="3253"></path><path d="M655.36 169.173333h142.506667v0.426667h-142.506667z" fill="#858485" p-id="3254"></path><path d="M655.36 169.6h142.506667v0.426667h-142.506667z" fill="#848384" p-id="3255"></path><path d="M655.36 170.026667h142.506667v0.426666h-142.506667z" fill="#838283" p-id="3256"></path><path d="M655.36 170.453333h142.506667v0.426667h-142.506667z" fill="#828182" p-id="3257"></path><path d="M655.36 170.88h142.506667v0.426667h-142.506667z" fill="#818081" p-id="3258"></path><path d="M655.36 171.306667h142.506667v0.426666h-142.506667z" fill="#807F80" p-id="3259"></path><path d="M655.36 171.733333h142.506667v0.426667h-142.506667z" fill="#7F7E7F" p-id="3260"></path><path d="M655.36 172.16h142.506667v0.426667h-142.506667z" fill="#7E7D7E" p-id="3261"></path><path d="M655.36 172.586667h142.506667v0.426666h-142.506667z" fill="#7D7C7D" p-id="3262"></path><path d="M655.36 173.013333h142.506667v0.426667h-142.506667z" fill="#7C7B7C" p-id="3263"></path><path d="M655.36 173.44h142.506667v0.426667h-142.506667z" fill="#7B7A7B" p-id="3264"></path><path d="M655.36 173.653333h142.506667v0.426667h-142.506667z" fill="#7A797A" p-id="3265"></path><path d="M655.36 174.08h142.506667v0.426667h-142.506667z" fill="#797879" p-id="3266"></path><path d="M655.36 174.506667h142.506667v0.426666h-142.506667z" fill="#787778" p-id="3267"></path><path d="M655.36 174.933333h142.506667v0.426667h-142.506667z" fill="#777677" p-id="3268"></path><path d="M655.36 175.36h142.506667v0.426667h-142.506667z" fill="#767576" p-id="3269"></path><path d="M655.36 175.786667h142.506667v0.426666h-142.506667z" fill="#767475" p-id="3270"></path><path d="M655.36 176.213333h142.506667v0.426667h-142.506667z" fill="#757374" p-id="3271"></path><path d="M655.36 176.64h142.506667v0.426667h-142.506667z" fill="#747273" p-id="3272"></path><path d="M655.36 177.066667h142.506667v0.426666h-142.506667z" fill="#737172" p-id="3273"></path><path d="M655.36 177.493333h142.506667v0.426667h-142.506667z" fill="#727071" p-id="3274"></path><path d="M655.36 177.92h142.506667v0.426667h-142.506667z" fill="#716F70" p-id="3275"></path><path d="M655.36 178.346667h142.506667v0.426666h-142.506667z" fill="#706E6F" p-id="3276"></path><path d="M655.36 178.773333h142.506667v0.426667h-142.506667z" fill="#6F6D6E" p-id="3277"></path><path d="M655.36 179.2h142.506667v0.426667h-142.506667z" fill="#6E6C6D" p-id="3278"></path><path d="M655.36 179.626667h142.506667v0.426666h-142.506667z" fill="#6D6B6C" p-id="3279"></path><path d="M655.36 180.053333h142.506667v0.426667h-142.506667z" fill="#6C6A6B" p-id="3280"></path><path d="M655.36 180.48h142.506667v0.426667h-142.506667z" fill="#6B696A" p-id="3281"></path><path d="M655.36 180.693333h142.506667v0.426667h-142.506667z" fill="#6A6869" p-id="3282"></path><path d="M655.36 181.12h142.506667v0.426667h-142.506667z" fill="#696768" p-id="3283"></path><path d="M655.36 181.546667h142.506667v0.426666h-142.506667z" fill="#686667" p-id="3284"></path><path d="M655.36 181.973333h142.506667v0.426667h-142.506667z" fill="#676566" p-id="3285"></path><path d="M655.36 182.4h142.506667v0.426667h-142.506667z" fill="#666465" p-id="3286"></path><path d="M655.36 182.826667h142.506667v0.426666h-142.506667z" fill="#656364" p-id="3287"></path><path d="M655.36 183.253333h142.506667v0.426667h-142.506667z" fill="#646263" p-id="3288"></path><path d="M655.36 183.68h142.506667v0.426667h-142.506667z" fill="#636162" p-id="3289"></path><path d="M655.36 184.106667h142.506667v0.426666h-142.506667z" fill="#626061" p-id="3290"></path><path d="M655.36 184.533333h142.506667v0.426667h-142.506667z" fill="#615F60" p-id="3291"></path><path d="M655.36 184.96h142.506667v0.426667h-142.506667z" fill="#605E5F" p-id="3292"></path><path d="M655.36 185.386667h142.506667v0.426666h-142.506667z" fill="#5F5D5E" p-id="3293"></path><path d="M655.36 185.813333h142.506667v0.426667h-142.506667z" fill="#5E5C5D" p-id="3294"></path><path d="M655.36 186.24h142.506667v0.426667h-142.506667z" fill="#5D5B5C" p-id="3295"></path><path d="M655.36 186.666667h142.506667v0.426666h-142.506667z" fill="#5C5A5B" p-id="3296"></path><path d="M655.36 187.093333h142.506667v0.426667h-142.506667z" fill="#5B595A" p-id="3297"></path><path d="M655.36 187.52h142.506667v0.426667h-142.506667z" fill="#5A5859" p-id="3298"></path><path d="M655.36 187.733333h142.506667v0.426667h-142.506667z" fill="#595758" p-id="3299"></path><path d="M655.36 188.16h142.506667v0.426667h-142.506667z" fill="#585657" p-id="3300"></path><path d="M655.36 188.586667h142.506667v0.426666h-142.506667z" fill="#575556" p-id="3301"></path><path d="M655.36 189.013333h142.506667v0.426667h-142.506667z" fill="#565455" p-id="3302"></path><path d="M655.36 189.44h142.506667v0.426667h-142.506667z" fill="#565454" p-id="3303"></path><path d="M655.36 189.866667h142.506667v0.426666h-142.506667z" fill="#555352" p-id="3304"></path><path d="M655.36 190.293333h142.506667v0.426667h-142.506667z" fill="#545251" p-id="3305"></path><path d="M655.36 190.72h142.506667v0.426667h-142.506667z" fill="#535150" p-id="3306"></path><path d="M655.36 191.146667h142.506667v0.426666h-142.506667z" fill="#52504F" p-id="3307"></path><path d="M655.36 191.573333h142.506667V192h-142.506667z" fill="#514F4E" p-id="3308"></path><path d="M655.36 192h142.506667v0.426667h-142.506667z" fill="#504E4D" p-id="3309"></path><path d="M655.36 192.426667h142.506667v0.426666h-142.506667z" fill="#4F4D4C" p-id="3310"></path><path d="M655.36 192.853333h142.506667v0.426667h-142.506667z" fill="#4E4C4B" p-id="3311"></path><path d="M655.36 193.28h142.506667v0.426667h-142.506667z" fill="#4D4B4A" p-id="3312"></path><path d="M655.36 193.706667h142.506667v0.426666h-142.506667z" fill="#4C4A49" p-id="3313"></path><path d="M655.36 194.133333h142.506667v0.426667h-142.506667z" fill="#4B4948" p-id="3314"></path><path d="M655.36 194.56h142.506667v0.426667h-142.506667z" fill="#4A4847" p-id="3315"></path><path d="M655.36 194.773333h142.506667v0.426667h-142.506667z" fill="#494746" p-id="3316"></path><path d="M655.36 195.2h142.506667v0.426667h-142.506667z" fill="#484645" p-id="3317"></path><path d="M655.36 195.626667h142.506667v0.426666h-142.506667z" fill="#474544" p-id="3318"></path><path d="M655.36 196.053333h142.506667v0.426667h-142.506667z" fill="#464443" p-id="3319"></path><path d="M655.36 196.48h142.506667v0.426667h-142.506667z" fill="#454342" p-id="3320"></path><path d="M655.36 196.906667h142.506667v0.426666h-142.506667z" fill="#444241" p-id="3321"></path><path d="M655.36 197.333333h142.506667v0.426667h-142.506667z" fill="#434140" p-id="3322"></path><path d="M655.36 197.76h142.506667v0.426667h-142.506667z" fill="#42403F" p-id="3323"></path><path d="M655.36 198.186667h142.506667v0.426666h-142.506667z" fill="#413F3E" p-id="3324"></path><path d="M655.36 198.613333h142.506667v0.426667h-142.506667z" fill="#403E3D" p-id="3325"></path><path d="M655.36 199.04h142.506667v0.426667h-142.506667z" fill="#3F3D3C" p-id="3326"></path><path d="M655.36 199.466667h142.506667v0.426666h-142.506667z" fill="#3E3C3B" p-id="3327"></path><path d="M655.36 199.893333h142.506667v0.426667h-142.506667z" fill="#3D3B3A" p-id="3328"></path><path d="M655.36 200.32h142.506667v0.426667h-142.506667z" fill="#3C3A39" p-id="3329"></path><path d="M655.36 200.746667h142.506667v0.426666h-142.506667z" fill="#3B3938" p-id="3330"></path><path d="M655.36 201.173333h142.506667v0.426667h-142.506667z" fill="#3A3837" p-id="3331"></path><path d="M655.36 201.6h142.506667v0.426667h-142.506667z" fill="#393736" p-id="3332"></path><path d="M655.36 201.813333h142.506667v0.426667h-142.506667z" fill="#383635" p-id="3333"></path><path d="M655.36 202.24h142.506667v0.426667h-142.506667z" fill="#373534" p-id="3334"></path><path d="M655.36 202.666667h142.506667v0.426666h-142.506667z" fill="#363433" p-id="3335"></path><path d="M655.36 203.093333h142.506667v0.426667h-142.506667z" fill="#353332" p-id="3336"></path><path d="M655.36 203.52h142.506667v0.426667h-142.506667z" fill="#353231" p-id="3337"></path><path d="M655.36 203.946667h142.506667v0.426666h-142.506667z" fill="#343130" p-id="3338"></path><path d="M655.36 204.373333h142.506667v0.426667h-142.506667z" fill="#33302F" p-id="3339"></path><path d="M655.36 204.8h142.506667v0.426667h-142.506667z" fill="#322F2E" p-id="3340"></path><path d="M655.36 205.226667h142.506667v0.426666h-142.506667z" fill="#312E2D" p-id="3341"></path><path d="M655.36 205.653333h142.506667v0.426667h-142.506667z" fill="#302D2C" p-id="3342"></path><path d="M655.36 206.08h142.506667v0.426667h-142.506667z" fill="#2F2C2B" p-id="3343"></path><path d="M655.36 206.506667h142.506667v0.426666h-142.506667z" fill="#2E2B2A" p-id="3344"></path><path d="M655.36 206.933333h142.506667v0.426667h-142.506667z" fill="#2D2A29" p-id="3345"></path><path d="M655.36 207.36h142.506667v0.426667h-142.506667z" fill="#2C2928" p-id="3346"></path><path d="M655.36 207.786667h142.506667v0.426666h-142.506667z" fill="#2B2827" p-id="3347"></path><path d="M655.36 208.213333h142.506667v0.426667h-142.506667z" fill="#2A2726" p-id="3348"></path><path d="M655.36 208.64h142.506667v0.426667h-142.506667z" fill="#292625" p-id="3349"></path><path d="M655.36 208.853333h142.506667v0.426667h-142.506667z" fill="#282524" p-id="3350"></path><path d="M655.36 209.28h142.506667v0.426667h-142.506667z" fill="#272423" p-id="3351"></path><path d="M655.36 209.706667h142.506667v0.426666h-142.506667z" fill="#262322" p-id="3352"></path><path d="M655.36 210.133333h142.506667v0.426667h-142.506667z" fill="#252221" p-id="3353"></path><path d="M655.36 210.56h142.506667v0.426667h-142.506667z" fill="#242120" p-id="3354"></path><path d="M655.36 210.986667h142.506667v0.426666h-142.506667z" fill="#23201F" p-id="3355"></path><path d="M655.36 211.413333h142.506667v0.426667h-142.506667z" fill="#221F1E" p-id="3356"></path><path d="M655.36 211.84h142.506667v0.426667h-142.506667z" fill="#211E1D" p-id="3357"></path><path d="M655.36 212.266667h142.506667v0.426666h-142.506667z" fill="#201D1C" p-id="3358"></path><path d="M655.36 212.693333h142.506667v0.426667h-142.506667z" fill="#1F1C1B" p-id="3359"></path><path d="M655.36 213.12h142.506667v0.426667h-142.506667z" fill="#1E1B1A" p-id="3360"></path><path d="M655.36 213.546667h142.506667v0.426666h-142.506667z" fill="#1D1A19" p-id="3361"></path><path d="M655.36 213.973333h142.506667v0.426667h-142.506667z" fill="#1C1918" p-id="3362"></path><path d="M655.36 214.4h142.506667v0.426667h-142.506667z" fill="#1B1817" p-id="3363"></path><path d="M655.36 214.826667h142.506667v0.426666h-142.506667z" fill="#1A1716" p-id="3364"></path><path d="M655.36 215.253333h142.506667v0.426667h-142.506667z" fill="#191615" p-id="3365"></path><path d="M655.36 215.466667h142.506667v0.426666h-142.506667z" fill="#181514" p-id="3366"></path><path d="M655.36 215.893333h142.506667v0.426667h-142.506667z" fill="#171413" p-id="3367"></path><path d="M655.36 216.32h142.506667v0.426667h-142.506667z" fill="#161312" p-id="3368"></path><path d="M655.36 216.746667h142.506667v0.426666h-142.506667z" fill="#151211" p-id="3369"></path><path d="M655.36 217.173333h142.506667v0.426667h-142.506667z" fill="#151110" p-id="3370"></path><path d="M655.36 217.6h142.506667v0.426667h-142.506667z" fill="#14100F" p-id="3371"></path><path d="M655.36 218.026667h142.506667v0.426666h-142.506667z" fill="#130F0E" p-id="3372"></path><path d="M655.36 218.453333h142.506667v0.426667h-142.506667z" fill="#120E0D" p-id="3373"></path><path d="M655.36 218.88h142.506667v0.426667h-142.506667z" fill="#110D0C" p-id="3374"></path><path d="M655.36 219.306667h142.506667v0.426666h-142.506667z" fill="#100C0B" p-id="3375"></path><path d="M655.36 219.733333h142.506667v0.426667h-142.506667z" fill="#0F0B0A" p-id="3376"></path><path d="M655.36 220.16h142.506667v0.426667h-142.506667z" fill="#0E0A09" p-id="3377"></path><path d="M655.36 220.586667h142.506667v0.426666h-142.506667z" fill="#0D0908" p-id="3378"></path><path d="M655.36 221.013333h142.506667v0.426667h-142.506667z" fill="#0C0807" p-id="3379"></path><path d="M655.36 221.44h142.506667v0.426667h-142.506667z" fill="#0B0706" p-id="3380"></path><path d="M655.36 221.866667h142.506667v0.426666h-142.506667z" fill="#0A0605" p-id="3381"></path><path d="M655.36 222.293333h142.506667v0.426667h-142.506667z" fill="#090504" p-id="3382"></path><path d="M655.36 222.506667h142.506667v0.426666h-142.506667z" fill="#080403" p-id="3383"></path><path d="M655.36 222.933333h142.506667v0.426667h-142.506667z" fill="#070302" p-id="3384"></path><path d="M655.36 223.36h142.506667v0.426667h-142.506667z" fill="#060201" p-id="3385"></path><path d="M655.36 223.786667h142.506667v0.426666h-142.506667zM655.36 224.213333z" fill="#050100" p-id="3386"></path><path d="M269.44 314.026667c0 13.653333 2.56 27.52 2.986667 41.386666a67.626667 67.626667 0 0 1-30.08 61.013334 147.626667 147.626667 0 0 1-52.906667 24.32A28.586667 28.586667 0 0 1 154.24 405.333333a136.533333 136.533333 0 0 1 14.293333-36.906666 350.506667 350.506667 0 0 0 34.773334-88.96 93.866667 93.866667 0 0 1 6.186666-16.853334 21.333333 21.333333 0 0 1 25.173334-11.52 106.666667 106.666667 0 0 1 21.333333 8.746667c10.453333 5.333333 21.333333 11.733333 30.933333 17.493333 6.4-6.613333 12.373333-13.866667 18.986667-20.266666A274.773333 274.773333 0 0 1 384 206.293333a661.333333 661.333333 0 0 1 141.013333-48.853333 573.013333 573.013333 0 0 1 69.12-9.6c27.52-1.92 55.466667-2.986667 82.986667-2.346667a238.08 238.08 0 0 1 104.106667 21.333334 57.173333 57.173333 0 0 1 35.626666 41.173333 174.72 174.72 0 0 1 0 42.666667 232.96 232.96 0 0 1-22.4 68.906666 34.773333 34.773333 0 0 1-15.146666 14.08 152.106667 152.106667 0 0 1-48 16.213334 258.773333 258.773333 0 0 1-138.453334-8.533334 185.813333 185.813333 0 0 1-68.266666-47.36 33.92 33.92 0 0 0-6.186667-6.186666c-2.773333-1.28-7.04-2.346667-8.96 0a10.026667 10.026667 0 0 0-2.56 8.32 21.333333 21.333333 0 0 0 5.546667 8.96 202.24 202.24 0 0 0 104.533333 61.226666 265.173333 265.173333 0 0 0 145.92-5.333333 53.333333 53.333333 0 0 0 8.106667-3.2 37.76 37.76 0 0 1 8.746666-3.2c-5.333333 7.893333-10.453333 15.786667-15.786666 23.253333A273.706667 273.706667 0 0 1 618.666667 478.933333a220.586667 220.586667 0 0 1-115.413334 0 418.773333 418.773333 0 0 1-173.653333-85.333333 174.933333 174.933333 0 0 1-40.96-45.866667 87.68 87.68 0 0 1-9.386667-21.333333c-1.706667-6.186667-4.053333-10.24-9.386666-11.733333z m466.346667-152.96c-7.466667 0-15.146667 0-22.4 2.133333a64 64 0 0 0-31.36 12.8 11.946667 11.946667 0 0 0 1.92 21.333333 53.76 53.76 0 0 0 11.52 4.48 142.506667 142.506667 0 0 0 54.613333 1.493334 110.293333 110.293333 0 0 0 27.306667-7.466667 15.146667 15.146667 0 0 0 10.453333-14.933333c0-7.04-6.186667-9.6-11.306667-12.16a98.773333 98.773333 0 0 0-40.746666-7.466667z m-213.333334 82.986666a17.92 17.92 0 0 0 19.2-17.066666 18.133333 18.133333 0 0 0-19.2-17.28 17.28 17.28 0 1 0 0 34.346666z m83.626667 413.44h-14.506667c-1.28 0-2.986667-2.346667-3.413333-3.84-3.413333-13.653333-6.4-27.52-10.24-41.173333a58.24 58.24 0 0 0-7.253333-15.146667 10.453333 10.453333 0 0 0-17.92-1.28 89.386667 89.386667 0 0 0-13.013334 21.333334 307.2 307.2 0 0 0-11.093333 34.346666c-1.493333 4.693333-2.986667 7.253333-8.32 6.4a78.293333 78.293333 0 0 0-10.026667 0c0-20.053333 1.493333-39.253333 2.346667-60.16a75.946667 75.946667 0 0 0-11.093333 5.546667 215.893333 215.893333 0 0 0-18.133334 16c-10.453333 10.666667-21.333333 21.333333-30.506666 32.426667-6.186667 6.826667-8.32 7.466667-19.2 5.12l38.613333-65.493334a37.546667 37.546667 0 0 1-28.373333-21.333333 34.133333 34.133333 0 0 1 0-24.32c0 2.773333 1.28 5.76 2.133333 8.533333a24.32 24.32 0 0 0 31.36 17.706667 19.626667 19.626667 0 0 0 10.026667-7.466667c12.586667-21.333333 24.746667-40.96 36.693333-61.653333a6.826667 6.826667 0 0 1 8.533333-3.84 142.506667 142.506667 0 0 0 59.306667 0c4.266667-1.066667 8.533333-2.986667 13.226667-4.693333v162.773333zM368.426667 736.213333c-1.92 5.333333-11.52 6.613333-49.493334 6.613334s-46.506667 1.28-46.506666 6.613333 14.933333 6.826667 111.146666 6.826667 111.146667 0 111.146667-6.826667-8.533333-6.613333-49.066667-6.613333-48.853333-1.28-48.853333-6.613334-4.48-6.613333-12.8-6.613333a16.853333 16.853333 0 0 0-15.573333 6.613333z m208.853333 0c-1.706667 4.906667-8.746667 6.613333-24.746667 6.613334s-21.333333 1.92-21.333333 6.613333 4.906667 6.826667 17.92 6.826667c9.813333 0 17.706667 0 17.706667 2.133333a242.133333 242.133333 0 0 1-13.226667 29.013333 181.76 181.76 0 0 0-13.44 30.933334c0 2.773333 16.426667 4.48 42.666667 4.48h42.666666v35.626666c0 30.72-1.28 36.48-8.96 40.96a18.133333 18.133333 0 0 0-8.746666 11.946667c0 9.813333 27.52 2.346667 39.04-11.093333 8.533333-9.386667 9.813333-16.426667 9.813333-44.373334v-33.066666h44.373333c36.053333 0 44.586667-1.28 44.586667-6.613334s-8.96-6.613333-42.666667-7.466666l-43.733333-1.493334-3.626667-17.92c-1.28-18.346667-1.706667-18.773333-16.853333-18.773333s-15.146667 0-15.146667 20.053333V810.666667h-21.333333a71.466667 71.466667 0 0 1-24.533333-2.773334 68.053333 68.053333 0 0 1 9.386666-26.666666l11.52-23.893334h77.013334c65.28 0 77.013333 0 77.013333-6.826666s-11.306667-6.613333-73.386667-6.613334-72.96 0-70.826666-6.613333 0-6.613333-12.8-6.613333-16.426667 2.56-18.346667 6.613333z m-296.96 58.24a138.453333 138.453333 0 0 0 0 26.666667 350.506667 350.506667 0 0 0 45.866667 1.706667h42.666666v24.106666c0 34.133333-4.48 50.56-13.653333 53.76a11.733333 11.733333 0 0 0-8.533333 9.813334c0 9.813333 25.386667 4.48 38.613333-8.533334 8.96-8.32 10.24-13.653333 10.24-44.373333v-34.773333h88.96v-53.333334h-202.453333z m177.92 0l-1.28 12.373334h-146.773333l-1.28-12.373334-1.493334-11.946666h152.106667z m-161.066667 64a200.32 200.32 0 0 1-16.853333 42.666667l-8.96 14.72h9.386667c10.24 0 32-26.666667 45.44-55.68 11.52-24.746667 10.666667-28.8-6.186667-28.8s-15.146667 0-22.826667 27.52z m135.253334-21.333333a190.08 190.08 0 0 0 33.28 64 39.253333 39.253333 0 0 0 20.053333 13.866667c7.466667 0 7.466667-1.28-2.133333-19.2a149.333333 149.333333 0 0 1-16-42.666667c-5.333333-21.333333-5.973333-23.04-21.333334-23.04-10.24 0-14.72 2.133333-14.72 6.613333z m128-3.413333a150.613333 150.613333 0 0 0-5.333334 21.333333 151.466667 151.466667 0 0 1-14.293333 40.96c-8.32 16.426667-9.173333 21.333333-4.266667 21.333333 12.373333 0 43.946667-43.946667 53.333334-74.666666 2.986667-8.96 1.706667-9.813333-12.586667-9.813334-8.32 0-16.426667 1.28-17.28 3.2z m125.866666-1.493334a256 256 0 0 0 10.666667 26.24c11.52 26.24 36.053333 56.533333 45.44 56.533334s7.893333-2.133333-1.493333-16a186.24 186.24 0 0 1-15.573334-37.333334c-7.466667-27.093333-7.893333-27.733333-23.466666-29.013333h-16.426667z" fill="#FFFFFF" p-id="3387"></path></svg>