<?xml version="1.0" standalone="no"?><!DOCTYPE svg PUBLIC "-//W3C//DTD SVG 1.1//EN" "http://www.w3.org/Graphics/SVG/1.1/DTD/svg11.dtd"><svg t="1572417327056" class="icon" viewBox="0 0 1142 1024" version="1.1" xmlns="http://www.w3.org/2000/svg" p-id="3022" xmlns:xlink="http://www.w3.org/1999/xlink" width="223.046875" height="200"><defs><style type="text/css"></style></defs><path d="M577.302 269.069c92.959-54.958 209.993-82.553 255.874-64.32 9.017 3.579 29.088 14.205 57.735 13.922 33.502-0.334 53.331-15.322 64.81-5.5 10.907 9.393 4.739 33.064 3.13 39.471-29.63 116.993 7.817 178.829-52.485 311.823-24.744 54.583-74.84 165.022-194.516 231.555-127.2 70.708-297.441 72.012-395.712-4.853-27.573-21.573-81.081-74.099-68.108-109.092 7.629-20.612 35.484-27.375 46.339-30.609 126.095-37.478 117.349-284.489 282.934-382.394z" fill="#FADC4A" p-id="3023"></path><path d="M815.62 445.646c15.739-110.877-9.205-216.328 27.322-229.072 12.41-4.32 20.445 6.042 54.333 2.912 32.489-2.963 48.644-14.872 58.445-6.356 10.822 9.393 4.843 32.657 3.13 39.471-29.63 116.992 7.817 178.829-52.485 311.823-17.523 38.615-72.232 153.688-194.505 231.555-77.868 49.583-166.139 73.202-172.598 61.053-6.074-11.427 66.794-42.102 138.189-122.482 18.232-20.498 115.637-130.132 138.17-288.904z" fill="#D6BC40" p-id="3024"></path><path d="M477.998 882.789q-13.045 0-26.029-0.72c-83.211-4.603-158.384-31.174-211.673-74.746-8.025-6.522-28.606-24.16-46.442-45.764-27.573-33.323-36.998-62.495-28.022-86.728 10.792-29.159 43.729-38.666 57.798-42.738l2.182-0.638c27.95-8.348 50.544-30.193 73.264-70.968 3.637-6.442 10.438-10.72 18.238-10.72 11.528 0 20.875 9.345 20.875 20.875 0 3.728-0.978 7.229-2.691 10.259-12.929 23.201-26.1 41.392-40.23 55.481-17.303 17.261-36.131 28.742-57.578 35.098l-2.473 0.72c-7.964 2.317-26.749 7.733-30.235 17.126-5.604 15.133 21.521 52.777 61.754 85.694 46.494 38.042 113.1 61.263 187.544 65.384 75.884 4.174 154.346-11.887 220.93-45.293 56.44-28.335 105.878-69.611 146.925-122.68 33.304-43.061 51.941-82.032 60.897-100.765 40.316-84.306 44.063-156.047 47.371-219.334 2.088-39.148 3.976-76.114 14.799-109.5l0.167-0.522c2.183-5.99 3.561-12.908 3.806-20.113-8.941 9.183-16.332 11.473-23.163 14.744l7.281-3.042c-42.184 13.17-85.297 5.219-123.338-1.868-14.664-2.713-28.522-5.28-41.308-6.492-32.51-3.058-74.423 1.138-117.996 11.813-45.41 11.116-89.91 28.763-125.301 49.699-71.752 42.425-108.54 115.418-140.005 186.542-3.371 7.263-10.604 12.208-18.991 12.208-11.528 0-20.873-9.345-20.873-20.873 0-2.979 0.624-5.813 1.749-8.377 32.687-73.788 74.507-156.737 156.881-205.465 39.367-23.253 86.582-42.038 136.572-54.291 47.988-11.752 94.826-16.302 131.834-12.795 14.612 1.378 29.399 4.112 45.012 7.003 34.899 6.471 70.968 13.15 103.322 3.068l0.908-0.293c10.958-3.466 40.076-12.66 58.016 5.573 17.68 17.981 8.349 46.505 5.345 55.878l-0.156 0.47c-9.132 28.178-10.843 60.897-12.826 98.803-3.34 63.871-7.493 143.346-51.399 235.166-9.58 20.038-29.514 61.721-65.53 108.289-44.877 58.080-99.147 103.322-161.234 134.464-65.426 32.801-141.195 50.366-215.974 50.366z" fill="#000000" p-id="3025"></path><path d="M341.655 541.974c-11.525-0.006-20.865-9.348-20.865-20.873 0-3.104 0.678-6.051 1.893-8.697l0.385-0.83c3.349-7.323 10.611-12.322 19.042-12.322 11.528 0 20.875 9.345 20.875 20.875 0 3.098-0.675 6.039-1.885 8.683l-0.385 0.862c-3.352 7.315-10.61 12.305-19.033 12.305-0.008 0-0.018 0-0.025 0z" fill="#000000" p-id="3026"></path><path d="M945.565 234.024c2.662-31.674-90.171-80.048-178.579-70.76-53.029 5.573-122.201 33.752-121.127 61.825 1.493 38.813 137.396 80.257 244.632 44.741 21.176-7.025 53.559-17.752 55.074-35.809z" fill="#6BE166" p-id="3027"></path><path d="M801.666 304.229c-15.221-0.008-30.213-0.956-44.931-2.782-41.473-5.014-80.256-17.591-104.478-34.362-12.055-8.348-26.572-22.292-27.302-41.203-0.856-22.366 16.699-42.227 52.182-59.018 25.81-12.201 58.549-21.312 87.593-24.359 43.238-4.54 81.853 3.726 106.619 11.48 31.915 9.956 59.791 25.047 76.499 41.412 9.205 9.017 19.83 23.336 18.442 40.4-2.671 31.79-42.789 45.076-69.308 53.863-33.459 11.083-66.731 14.57-95.317 14.57zM666.983 224.401c3.329 5.927 24.078 22.053 72.085 31.852 49.564 10.113 102.362 7.838 144.859-6.263 8.484-2.808 19.036-6.262 27.782-10.436 7.577-3.569 11.042-6.335 12.523-7.775-3.267-6.262-18.629-19.955-47.57-31.696-34.095-13.787-73.316-19.652-107.497-16.083-32.841 3.849-62.683 13.575-89.529 28.124-2.447 0.232-10.818 8.988-12.653 12.276zM666.638 225.163z" fill="#000000" p-id="3028"></path></svg>