<?xml version="1.0" standalone="no"?><!DOCTYPE svg PUBLIC "-//W3C//DTD SVG 1.1//EN" "http://www.w3.org/Graphics/SVG/1.1/DTD/svg11.dtd"><svg t="1571130683031" class="icon" viewBox="0 0 1024 1024" version="1.1" xmlns="http://www.w3.org/2000/svg" p-id="2975" xmlns:xlink="http://www.w3.org/1999/xlink" width="200" height="200"><defs><style type="text/css"></style></defs><path d="M32.6656 355.8144s79.3344 30.4128 151.9104 25.344c72.576-5.0944 173.8496-50.6368 275.0976-45.5936s166.272 20.2496 230.4 33.7408 91.136 5.9392 97.8688-0.7936c6.7584-6.8096 11.8272-31.232-18.5856-29.5424-30.3872 1.6384-91.136 9.2416-86.912-26.1888 4.1984-35.4304 77.6192-37.1456 129.9456-20.2496 0 0-7.9872-18.944-36.2752-21.0944-30.1056-2.304-45.9008-2.8928-43.3664-22.144 2.9696-22.5536 25.1904-31.744 63.616-10.752 30.5152 16.6912 40.0128 33.1776 57.4464 57.8304 0 0 90.5216 21.2992 146.7392 60.2624 0 0 43.136 33.152 0 48.9472-43.904 16.1024-52.3264-7.6032-136.704 25.344-84.4032 32.896-168.7808 89.4208-184.832 107.1872-16.0256 17.664-21.0688 25.2672-9.2672 37.12 11.8272 11.8016 5.0688 22.7584-0.8448 28.6976-6.8864 8.3968-56.2176 44.928-103.808 59.8784-46.08 14.4896-115.584 27.8528-134.144 28.6976 0 0 93.6704 8.448 103.808 72.576s-13.4912 61.568-13.4912 61.568-119.8336-118.9376-213.504-124.8512c-93.6448-5.888-9.2672-101.2736 68.352-153.6 0 0-34.2784 10.1632-63.2832 32.9216 0 0-34.6112-37.12-10.1376-111.4112 0 0-176.2304 10.0864-291.1488-91.9808-7.3984-6.1696-19.3792-33.8944 21.12-21.9136z" fill="#F4EA2A" p-id="2976"></path></svg>