<?xml version="1.0" standalone="no"?><!DOCTYPE svg PUBLIC "-//W3C//DTD SVG 1.1//EN" "http://www.w3.org/Graphics/SVG/1.1/DTD/svg11.dtd"><svg t="1568882849441" class="icon" viewBox="0 0 1024 1024" version="1.1" xmlns="http://www.w3.org/2000/svg" p-id="7605" xmlns:xlink="http://www.w3.org/1999/xlink" width="48" height="48"><defs><style type="text/css"></style></defs><path d="M512 1024c282.752 0 512-229.248 512-512S794.752 0 512 0 0 229.248 0 512s229.248 512 512 512zM279.210667 213.333333h437.034666v207.018667H279.210667V213.333333z m368 145.92V274.432H348.202667V359.253333h299.008z m-317.696 173.952H170.666667v-65.408h653.397333v65.408h-426.24l-20.864 68.992h349.354667c-5.76 121.472-17.28 193.365333-35.242667 215.637334-17.962667 22.272-53.205333 33.792-104.96 33.792-35.2 0-66.816-2.133333-94.848-5.76l-23.04-61.824c38.826667 3.626667 72.618667 5.76 102.826667 5.76 35.925333 0 58.922667-7.168 67.541333-21.546667 7.936-14.378667 13.653333-49.621333 17.962667-104.234667H295.722667l33.792-130.816z" p-id="7606" fill="#1296db"></path></svg>