<?xml version="1.0" standalone="no"?><!DOCTYPE svg PUBLIC "-//W3C//DTD SVG 1.1//EN" "http://www.w3.org/Graphics/SVG/1.1/DTD/svg11.dtd"><svg t="1568950753762" class="icon" viewBox="0 0 1024 1024" version="1.1" xmlns="http://www.w3.org/2000/svg" p-id="15784" xmlns:xlink="http://www.w3.org/1999/xlink" width="200" height="200"><defs><style type="text/css"></style></defs><path d="M573.8496 710.0928H493.2608c-7.5776 0-13.7216 7.7312-13.7216 17.2032s6.144 17.2544 13.7216 17.2544h80.5888c7.5776 0 13.6704-7.7312 13.6704-17.2544s-6.0928-17.2032-13.6704-17.2032z" fill="#507CFC" p-id="15785"></path><path d="M533.5552 56.32a460.8 460.8 0 1 0 460.8 460.8 460.8 460.8 0 0 0-460.8-460.8z m161.9968 672.7168c0 39.4752-26.624 71.68-59.392 71.68H430.8992c-32.7168 0-59.3408-32.0512-59.3408-71.68V321.3824c0-39.424 26.624-71.68 59.3408-71.68h205.2608c32.768 0 59.392 32.1024 59.392 71.68z" fill="#507CFC" p-id="15786"></path></svg>