<?xml version="1.0" standalone="no"?><!DOCTYPE svg PUBLIC "-//W3C//DTD SVG 1.1//EN" "http://www.w3.org/Graphics/SVG/1.1/DTD/svg11.dtd"><svg t="1568984329287" class="icon" viewBox="0 0 1173 1024" version="1.1" xmlns="http://www.w3.org/2000/svg" p-id="18269" xmlns:xlink="http://www.w3.org/1999/xlink" width="229.1015625" height="200"><defs><style type="text/css"></style></defs><path d="M904.826415 1024H149.961494c-73.98534 0-134.567539-60.522629-134.567539-134.567539V134.567539C15.393955 60.522629 75.916584 0 149.961494 0h754.924491C978.871325 0 1039.393955 60.522629 1039.393955 134.567539v754.924491c0 73.98534-60.522629 134.50797-134.56754 134.50797z" fill="#F40009" p-id="18270"></path><path d="M302.042471 148.983362L107.369289 286.350669l194.673182 142.668994zM317.411407 148.983362v280.036301l200.630133-138.677836zM107.369289 306.306457v278.010937l191.337289-138.975684zM302.042471 459.638394v278.666202L107.369289 595.993019zM317.411407 459.638394v278.666202l190.979872-139.333101zM324.083193 750.337638L521.377433 892.351367l-1.012681-280.334148zM534.065741 612.017219V892.351367l196.638976-142.371146zM546.039213 599.984177L737.73392 458.685282l1.012682 279.619314zM751.375339 458.685282v279.619314L948.073885 597.482257zM756.081331 444.329029l191.992554 139.988365V305.353345zM751.375339 148.983362v280.036301l196.698546-142.013729zM738.746602 148.983362L535.078422 290.997091l203.66818 138.022572z" fill="#FFFFFF" p-id="18271"></path><path d="M402.595816 239.826876c-0.357417 6.910064-6.790925 12.39046-14.654101 12.39046-7.922746 0-14.296684-5.480396-14.654101-12.39046-16.560326 2.799767-22.636417 8.041885-35.443863 14.534962-1.608377 0.833973-1.965794 2.978476-0.655265 4.289006l10.365096 15.368935 5.420826-5.480396v55.101804c0 3.097615 2.50192 5.599535 5.599535 5.599534h58.199418c3.335893 0 6.076091-2.740198 6.076091-6.07609v-54.684817l5.420826 5.480395 9.709831-12.688307c1.608377-1.608377 2.204072-6.373938 0.119139-7.38662-12.450029-6.314369-20.372775-12.211751-35.503432-14.058406z m18.823968-1.965794M215.130546 326.738802c0.238278 0.416987 4.110297 6.731355 11.496916 7.029203 6.016521 0.178709 9.88854-3.75288 10.484235-4.408145 0.714834 0.655265 5.599535 4.646422 12.509599 3.69331 6.373938-0.893543 9.88854-5.420826 10.484235-6.254799 0.536126 0.357417 6.314369 3.931588 11.258639 1.489238 5.361257-2.680628 6.016521-9.948109 5.003839-14.237115-0.595695-2.50192-1.608377-3.335893-4.527283-7.505759-0.655265-0.953112-3.455032-5.778243-9.054567-15.488074-2.263642-3.872019-5.003839-8.69715-8.161023-14.296684 1.25096-6.016521 2.44235-10.782083 3.276323-13.998837 1.310529-5.122978 2.084933-7.38662 1.012682-10.245957-0.357417-0.893543-0.714834-1.489238-3.75288-6.254799 2.204072-4.527283 2.084933-8.518441 0.238278-9.769401-1.131821-0.774404-2.740198-0.297848-3.038045-0.238278-2.621059 0.774404-4.467714 4.050727-4.467714 8.220593-1.310529 0.05957-4.050727 0.416987-6.731355 2.263642-1.727516 1.19139-2.859337 2.561489-3.514602 3.514602-0.953112-1.19139-2.918906-3.455032-6.254799-4.765562-1.727516-0.714834-3.335893-0.953112-4.527283-1.012682 0.178709-3.872019-1.429668-7.029203-3.991158-7.982315-0.357417-0.119139-1.846655-0.714834-3.038045-0.059569-1.965794 1.072251-2.50192 5.122978-0.655265 10.067248-0.953112 1.608377-2.204072 4.169866-2.740198 7.505759-0.833973 4.8847 0.238278 9.114136 1.012682 11.973473 1.429668 5.420826 2.918906 6.552647 2.50192 9.769401-0.357417 2.918906-1.965794 5.122978-3.276324 6.493077-6.19523 11.1395-12.33089 22.338569-18.52612 33.478069-1.012682 4.646422 1.012682 9.411984 5.00384 11.735195 3.69331 2.263642 8.458871 1.965794 11.973473-0.714834zM158.896921 415.973938c0.774404-10.603374 8.875858-19.002676 18.52612-20.015357 11.07993-1.19139 21.981152 7.624898 22.993834 20.015357 3.157184 0.357417 8.339732 1.489238 12.628738 5.420826 1.906225 1.787086 4.586853 4.94427 7.267481 16.739035 2.263642 10.007679 2.799767 18.406981 3.63374 31.810122-0.357417 1.429668-1.429668 5.242118-5.003839 8.518441-3.69331 3.395462-7.803607 4.050727-9.233275 4.229436H150.199772c-1.548807-0.238278-6.254799-1.131821-10.245957-5.242118-3.514602-3.574171-4.467714-7.624898-4.765561-9.233275-0.119139-2.323211-0.953112-26.448866 6.016521-39.256312 1.072251-1.906225 2.978476-5.480396 7.029203-8.518441 3.991158-2.978476 8.161024-4.050727 10.662943-4.467714z" fill="#F40009" p-id="18272"></path><path d="M166.164403 415.73566h27.521116s-2.740198-11.973473-13.760558-11.973473-13.760558 11.973473-13.760558 11.973473z" fill="#FFFFFF" p-id="18273"></path><path d="M269.160098 636.500291h6.493077s-0.774404-29.427341 0-34.014194c1.727516-10.007679 11.07993-27.044561 10.007679-33.239791-2.263642-13.224433-14.77324-21.504596-16.500756-20.730192s-16.500756 17.27516-21.02804 29.486911-12.747877 29.248633-13.998836 29.486911-14.475393 2.025364-26.508435 6.493077c-11.07993 4.169866-20.015358 8.518441-17.989995 12.509599s13.760558 10.007679 30.261315 10.007679c19.77708 0 26.508435-1.25096 30.023037-16.0242 3.455032-14.475393 3.812449-21.325887 10.245957-27.997673 0.476556-0.476556 4.110297-4.229436 6.254799-3.276324 0 0 0.476556 0.238278 2.50192 3.276324l0.238278 44.021873zM344.396398 632.985689h87.269343c0.714834-0.178709 1.846655-0.536126 2.978475-1.489238 1.846655-1.548807 2.382781-3.574171 2.50192-4.229435v-58.258988c-0.357417-0.833973-1.072251-2.263642-2.50192-3.514602-2.263642-1.965794-4.8847-2.204072-5.778243-2.263641h-13.52228c-0.893543-1.965794-2.50192-2.978476-6.254799-8.220594-1.370099-1.906225-3.574171-2.382781-5.00384-2.978475h-32.227109c-1.131821 0.595695-2.978476 1.012682-3.752879 2.501919-2.740198 5.242118-5.242118 6.612216-6.016521 8.756719-5.897382 0.238278-11.854334 0.476556-17.751717 0.774404-0.655265 0.119139-2.025364 0.536126-3.276323 1.727516-1.667946 1.667946-1.965794 3.69331-2.025364 4.229436v57.722862c0.119139 0.655265 0.655265 2.382781 2.263642 3.752879 1.25096 1.012682 2.44235 1.370099 3.097615 1.489238z" fill="#F40009" p-id="18274"></path><path d="M453.646892 689.993717l-5.242117 6.731356h10.722513zM399.140784 748.490983c0.536126-3.812449 3.633741-24.423502 22.279-38.005352 16.500756-12.033042 37.350087-12.867016 51.944619-7.088772 9.292845 3.69331 16.619895 10.245957 17.811285 11.318208 4.348575 3.931588 8.041885 7.267481 10.782083 12.986155 6.493077 13.52228 4.348575 20.730192 6.493077 20.730192-2.084933-1.25096-7.327051-3.991158-14.475393-3.75288-6.13566 0.178709-10.662944 2.50192-12.747876 3.75288-1.965794-1.310529-6.254799-3.812449-12.271321-4.229436-4.229436-0.297848-7.684468 0.536126-9.769401 1.25096v42.473065c-0.595695 1.787086-1.787086 4.467714-4.110296 6.910064-4.527283 4.705992-12.033042 7.267481-19.121815 5.122979-9.531123-2.918906-13.284002-12.867016-13.164864-17.27516 0.05957-2.025364 0.953112-3.69331 0.953113-3.69331 0.238278-0.357417 2.204072-3.931588 5.242117-3.812449 2.740198 0.119139 4.586853 3.157184 5.242118 5.003839 0.893543 2.44235-0.178709 3.335893 0.774404 5.00384 1.548807 2.859337 6.671786 4.169866 9.233275 2.501919 1.310529-0.893543 3.931588-5.063409 2.978476-3.752879l1.250959-38.779756c-2.263642-0.655265-6.493077-1.608377-11.735194-0.774404-4.825131 0.774404-8.339732 2.740198-10.245957 3.991158-2.025364-1.19139-6.969634-3.75288-13.760559-3.752879-6.731355 0.178709-11.496917 2.680628-13.58185 3.872018zM568.079935 732.168935v49.859686c0 4.586853 3.75288 8.339732 8.339732 8.339733H625.38581c3.872019 0 7.029203-3.157184 7.029203-7.029203v-50.991507c0-2.918906-2.382781-5.361257-5.361256-5.361257h-53.850844c-2.799767 0-5.122978 2.323211-5.122978 5.182548zM573.143344 719.004072h55.697498c1.608377 0 3.038045-1.131821 3.216754-2.621059 0.178709-1.727516-0.536126-3.633741-4.825131-3.63374h-54.089121c-1.787086 0-3.216754 1.370099-3.216754 3.097615-0.05957 1.727516 1.429668 3.157184 3.216754 3.157184zM575.645264 712.749273s7.207912-14.475393 21.028039-14.475393c25.972309-0.05957 28.772077 14.475393 28.772077 14.475393h-49.800116z" fill="#F40009" p-id="18275"></path><path d="M603.22595 703.158581h-4.348575c-1.489238 0-2.740198-1.19139-2.740198-2.740198v-5.480396c0-1.489238 1.19139-2.740198 2.740198-2.740198h4.348575c1.489238 0 2.740198 1.19139 2.740198 2.740198v5.480396c0 1.548807-1.25096 2.740198-2.740198 2.740198zM655.170569 562.991507c2.680628-1.846655 8.994997-5.539965 17.751716-6.016522 10.960791-0.595695 18.883537 4.229436 21.504596 6.016522l-4.229436-15.190227c-0.595695-2.263642-2.680628-3.812449-5.003839-3.812449h-21.504596c-2.084933 0-3.931588 1.429668-4.408144 3.395462l-4.110297 15.607214zM694.367311 629.768935c-2.680628 1.846655-8.994997 5.539965-17.751716 6.016522-10.960791 0.595695-18.883537-4.229436-21.504596-6.016522l4.229436 15.190227c0.595695 2.263642 2.680628 3.812449 5.00384 3.812449h21.504595c2.084933 0 3.931588-1.429668 4.408145-3.395462l4.110296-15.607214z" fill="#F40009" p-id="18276"></path><path d="M674.530662 595.87388m-31.393136 0a31.393136 31.393136 0 1 0 62.786272 0 31.393136 31.393136 0 1 0-62.786272 0Z" fill="#F40009" p-id="18277"></path><path d="M792.537876 556.260151h-3.216754c-1.310529 0-2.382781-1.072251-2.382781-2.38278v-11.735195c0-1.310529 1.072251-2.382781 2.382781-2.382781h3.216754c1.310529 0 2.382781 1.072251 2.38278 2.382781v11.735195c0 1.310529-1.072251 2.382781-2.38278 2.38278zM820.35684 556.260151h-3.455032c-1.370099 0-2.561489-1.131821-2.561489-2.561489v-14.177545c0-1.370099 1.131821-2.561489 2.561489-2.561489h3.455032c1.370099 0 2.561489 1.131821 2.561489 2.561489v14.177545c0 1.429668-1.19139 2.561489-2.561489 2.561489zM848.414083 556.260151h-3.633741c-1.489238 0-2.680628-1.19139-2.680628-2.680628v-11.199069c0-1.489238 1.19139-2.680628 2.680628-2.680629h3.633741c1.489238 0 2.680628 1.19139 2.680628 2.680629v11.199069c-0.05957 1.489238-1.25096 2.680628-2.680628 2.680628zM850.618155 641.742408H787.414897c-4.467714 0-8.041885-3.574171-8.041885-8.041884V567.697499c0-1.787086 1.429668-3.216754 3.216754-3.216754h73.389645c1.608377 0 2.918906 1.310529 2.918907 2.918906v66.062594c0 4.586853-3.69331 8.280163-8.280163 8.280163z" fill="#F40009" p-id="18278"></path><path d="M857.40908 583.245143s14.594532 1.608377 19.479232 9.7694c5.480396 9.114136 2.680628 19.77708-3.514602 24.72135-6.493077 5.242118-14.475393 5.242118-14.475392 5.242117v-7.505759s13.760558-3.991158 12.509598-13.52228-13.998837-11.020361-13.998836-11.020361v-7.684467zM820.35684 440.873997c-1.370099 2.44235-1.310529 5.420826 0.119139 7.863176 3.335893 5.718674 10.782083 13.879697 19.360093 19.538801 11.437347 7.505759 20.730192 6.016521 20.730192 6.016522s14.237115 12.986155 18.52612 13.998836 5.480396-1.25096 5.480396-4.765561v-13.998837s10.007679-3.75288 15.249796-8.994997 8.220593-8.756719 11.258639-7.744037 10.484235 11.258639 16.262478 12.27132 10.007679-2.50192 7.982315-8.51844-5.480396-11.675625-5.480395-11.675626 6.016521-8.101454 6.016521-13.820128c0-5.778243-5.778243-10.245957-11.020361-7.505759s-11.020361 11.973473-14.475393 11.973473-10.722513-9.650262-17.751716-12.807446-8.518441-4.169866-8.518441-4.169866 1.727516-15.011518 0-17.27516-8.220593 0.238278-12.27132 3.276323-11.020361 10.245957-11.020361 10.245957-12.509599-0.238278-26.984991 9.769401c-6.373938 4.408144-10.960791 11.794764-13.462711 16.322048z" fill="#F40009" p-id="18279"></path><path d="M819.522867 292.128912m-42.651775 0a42.651774 42.651774 0 1 0 85.303549 0 42.651774 42.651774 0 1 0-85.303549 0Z" fill="#F40009" p-id="18280"></path><path d="M787.117049 226.006748s10.722513-2.44235 18.52612 0.774404c10.245957 4.229436 11.258639 18.52612 11.258639 18.52612s-9.471553 5.480396-19.479232-2.025364-10.305526-17.27516-10.305527-17.27516zM842.933687 231.129727s-8.101454-1.846655-13.998837 0.595695c-7.744037 3.216754-8.518441 13.998837-8.51844 13.998836s7.207912 4.169866 14.77324-1.489238 7.744037-13.105294 7.744037-13.105293zM653.502622 329.35986h43.783596c0.357417 0 0.536126-0.476556 0.178708-0.655264-1.906225-1.072251-6.076091-3.335893-11.1395-5.182548-7.029203-2.50192-8.994997-4.229436-8.994997-4.229436v-14.892379s8.994997-7.565329 15.011519-12.211751 15.726353-17.394299 15.726352-28.116812-3.991158-27.878534-3.991157-27.878534H644.388486s-4.229436 23.827807-2.025363 33.835485c3.75288 12.747877 15.011518 21.981152 20.730192 27.22327s8.518441 7.505759 8.518441 7.505759v15.249796l-18.347412 8.280163c-0.536126 0.238278-0.357417 1.072251 0.238278 1.072251z" fill="#F40009" p-id="18281"></path><path d="M452.395933 386.010471l19.479232-41.519953 15.011518 40.507271 16.0242 2.025364v14.237115l24.483072-5.00384-17.751716-50.51495 47.476905 20.015357-11.079931 33.716347 23.112973-5.242117 20.491914-49.740547 33.775916 26.270157-33.29936 25.734031 33.29936-0.238278 8.220594 25.734032h-21.266318l-7.505759 31.035718L630.151372 458.685282l8.756719 24.542641-32.524957 3.75288-7.505759 52.242466-17.751716 11.556487-11.258639-66.003025-21.445026-1.548808-13.343572 56.293194-18.704828 11.258639-2.204072-64.037231-16.0242-1.727516-6.2548-19.538802-7.267481 9.531123-10.007679 76.963816-39.732868-28.235951 25.495754-7.207912-4.705992-37.052239-13.998837 11.794764-12.033042-40.030716L457.399772 446.771379l-3.276323-27.997673-8.220594-1.787086-13.284002-24.244793z" fill="#FFFFFF" p-id="18282"></path><path d="M494.392442 407.753345l-7.744037 10.245957-3.991158 28.772077 24.006516-1.429669-7.267481 15.905061 24.006515-8.518441-5.361257-24.959627-16.143339-4.527284zM554.617224 427.470855l20.253636-4.467714 2.799767 28.47423-27.521117 5.301687z" fill="#F40009" p-id="18283"></path></svg>