<?xml version="1.0" standalone="no"?><!DOCTYPE svg PUBLIC "-//W3C//DTD SVG 1.1//EN" "http://www.w3.org/Graphics/SVG/1.1/DTD/svg11.dtd"><svg t="1571131106122" class="icon" viewBox="0 0 1024 1024" version="1.1" xmlns="http://www.w3.org/2000/svg" p-id="6865" xmlns:xlink="http://www.w3.org/1999/xlink" width="200" height="200"><defs><style type="text/css"></style></defs><path d="M448.716755 482.201654c-96.81919 4.6592-175.001582 56.780794-175.001582 121.958388s78.182392 114.483189 175.001582 109.823989 175.001582-66.099193 175.001583-131.276787c-0.9216-64.204794-79.155192-105.164789-175.001583-100.50559z m65.177594 164.761584C484.095952 686.080034 425.420757 704.716832 368.639963 673.024035a50.892795 50.892795 0 0 1-26.060797-43.775996s-11.161599-92.159991 85.657591-103.321589c97.74079-12.083199 115.455988 81.919992 85.657592 121.036788z" fill="#EA5D5C" p-id="6866"></path><path d="M448.716755 584.601644a13.670399 13.670399 0 0 0-3.737599 18.636798 10.956799 10.956799 0 0 0 16.742398 1.8432c5.580799-4.6592 8.396799-13.055999 4.659199-18.636798-2.7648-5.580799-10.239999-6.502399-17.663998-1.8432z m-45.619195 13.055999a34.047997 34.047997 0 0 0-30.719997 33.535996c0 14.899199 14.899199 26.060797 32.563197 24.217598s32.563197-15.820798 32.563196-31.641597-13.977599-27.903997-34.457596-26.060797z" fill="#EA5D5C" p-id="6867"></path><path d="M511.999949 0.000102a511.999949 511.999949 0 1 0 511.999949 511.999949A511.692749 511.692749 0 0 0 511.999949 0.000102z m197.37598 626.483138c-40.038396 85.657591-171.263983 127.539187-268.083173 120.063988-92.159991-7.423999-211.302379-38.143996-223.436778-151.756785 0 0-6.502399-51.199995 42.803196-117.299188 0 0 70.758393-99.58399 152.678385-128.460788 82.841592-27.903997 92.159991 19.558398 92.15999 48.383996-4.6592 24.217598-12.083199 38.143996 18.636799 28.876797 0 0 80.998392-38.143996 114.483188-4.6592 26.982397 26.982397 4.6592 65.177593 4.6592 65.177594s-11.161599 12.083199 12.083198 16.742398c21.401598 3.7376 94.003191 37.222396 54.015995 122.879988z m-80.076792-236.441577a16.332798 16.332798 0 0 1-15.820798-15.820798 15.667198 15.667198 0 0 1 15.820798-15.820798s99.58399-18.636798 87.500791 89.343991v1.843199a16.076798 16.076798 0 0 1-15.820798 13.977599 15.667198 15.667198 0 0 1-15.820799-15.820798c0-1.8432 15.820798-73.523193-55.859194-57.702395z m168.499183 103.32159c-2.816 18.636798-12.083199 11.161599-22.323198 11.161599-13.055999 0-23.295998-16.742398-23.295997-29.798397a66.918393 66.918393 0 0 1 4.659199-22.323198c0.9216-4.6592 12.083199-34.457597-7.423999-78.182392-35.430396-60.518394-106.137589-60.518394-114.534388-57.702394a99.68639 99.68639 0 0 1-21.401598 5.580799 23.295998 23.295998 0 0 1-6.5024-45.619195 0.9216 0.9216 0 0 0 0.9216 0.9216 3.2256 3.2256 0 0 1 1.8432 0.9216 219.340778 219.340778 0 0 1 79.103992 3.737599c62.361594 14.899199 146.175985 83.763192 108.902389 211.302379z" fill="#F95858" p-id="6868"></path></svg>