<?xml version="1.0" standalone="no"?><!DOCTYPE svg PUBLIC "-//W3C//DTD SVG 1.1//EN" "http://www.w3.org/Graphics/SVG/1.1/DTD/svg11.dtd"><svg t="1571131607986" class="icon" viewBox="0 0 1024 1024" version="1.1" xmlns="http://www.w3.org/2000/svg" p-id="2751" xmlns:xlink="http://www.w3.org/1999/xlink" width="200" height="200"><defs><style type="text/css"></style></defs><path d="M511.999 64.35C264.771 64.35 64.35 264.771 64.35 512.001c0 247.229 200.421 447.649 447.649 447.649 247.23 0 447.651-200.421 447.651-447.649 0-247.23-200.421-447.651-447.651-447.651zM346.536 365.094c22.291 0 40.364 16.154 40.364 36.069 0 19.93-18.072 36.066-40.364 36.066-22.28 0-40.353-16.136-40.353-36.066 0-19.914 18.073-36.069 40.353-36.069z m33.725 216.776c-10.686 32.935-8.006 20.695-50.309 112.301l-61.323-38.101s68.329-61.975 82.421-90.3c14.843-29.861-16.413-45.84-16.413-45.84l-46.974-29.128 25.351-38.998c35.496 26.216 38.083 28.425 61.97 52.297 18.508 18.492 16.195 44.137 5.277 77.769z m333.101 42.692c-11.915 111.761-157.776 70.232-157.776 70.232l7.946-31.959 33.727 7.239c62.526 3.951 56.38-50.444 56.38-50.444V461.391c0.549-59.985-56.664-66.289-159.27-29.675l23.883 6.446c-2.068 7.039-9.843 18.028-19.722 29.992h137.309v27.688h-77.273v34.607h76.953v27.694h-76.953v58.048c11.487-3.816 22.262-9.012 31.628-15.902l-6.818-25.336 36.346-11.243 30.197 73.864-44.711 18.477-7.932-29.448c-19.928 15.292-61.465 37.338-133.97 35.379-77.409 1.985-57.557-87.029-57.557-87.029l1.996-0.992h54.369c-0.341 11.41-5.059 30.096 1.396 40.235 5.299 8.317 18.86 9.757 27.576 10.201 0.985 0.064 1.988 0.071 2.982 0.111v-66.365h-78.931V530.45h78.931v-34.607h-20.24c-17.748 18.781-33.973 34.29-33.973 34.29l-23.821-20.761c16.894-17.735 33.844-45.836 44.27-64.608a1158.938 1158.938 0 0 0-26.202 11.069c-8.87 11.084-18.945 22.52-30.283 33.759 0.463 0.663-38.883-21.961-38.883-21.961 40.678-34.612 63.5-108.783 63.5-108.783l56.56 15.813s-4.684 10.942-14.375 27.735c226.591-63.952 239.769 39.201 239.769 39.201s14.893 71.208 2.972 182.965z" fill="#F73501" p-id="2752"></path></svg>