<?xml version="1.0" standalone="no"?><!DOCTYPE svg PUBLIC "-//W3C//DTD SVG 1.1//EN" "http://www.w3.org/Graphics/SVG/1.1/DTD/svg11.dtd"><svg t="1568984101970" class="icon" viewBox="0 0 1024 1024" version="1.1" xmlns="http://www.w3.org/2000/svg" p-id="17392" xmlns:xlink="http://www.w3.org/1999/xlink" width="200" height="200"><defs><style type="text/css"></style></defs><path d="M157.461312 0h708.074437c86.252693 0 157.461312 70.205681 157.461313 156.458374v710.080314c0 86.252693-71.208619 156.458374-157.461313 156.458374H157.461312c-86.252693 0-157.461312-70.205681-157.461312-156.458374V155.455436C0 70.205681 71.208619 0 157.461312 0z" fill="#FF5500" p-id="17393"></path><path d="M163.478942 259.761019c4.011753-9.026445 9.026445-16.047013 17.049951-23.067581 7.020568-7.020568 15.044074-12.03526 25.073458-16.047013 9.026445-4.011753 19.055828-5.014691 30.088149-5.014691s21.061704 2.005877 30.088148 5.014691c10.029383 4.011753 18.052889 9.026445 25.073458 16.047013 7.020568 6.01763 13.038198 14.041136 17.049951 23.067581 4.011753 9.026445 6.01763 18.052889 6.01763 28.082272 0 10.029383-2.005877 19.055828-6.01763 28.082272-4.011753 9.026445-10.029383 16.047013-17.049951 23.067581-7.020568 6.01763-15.044074 11.032321-25.073458 15.044074-10.029383 4.011753-20.058766 6.01763-30.088148 6.01763-11.032321 0-21.061704-2.005877-30.088149-6.01763-9.026445-4.011753-17.049951-9.026445-25.073458-15.044074-7.020568-6.01763-13.038198-14.041136-17.049951-23.067581-4.011753-9.026445-6.01763-18.052889-6.01763-28.082272 0-10.029383 2.005877-19.055828 6.01763-28.082272z m150.440745 312.916748c-4.011753 22.064643-13.038198 46.135162-26.076396 70.205681-10.029383 18.052889-18.052889 34.099902-25.073458 50.146914-6.01763 15.044074-13.038198 30.088149-19.055827 44.129285-6.01763 14.041136-12.03526 27.079334-18.052889 41.120471-6.01763 13.038198-12.03526 27.079334-18.05289 40.117531-10.029383-7.020568-20.058766-15.044074-30.088149-22.064642-10.029383-7.020568-21.061704-15.044074-31.091087-23.067581-10.029383-7.020568-20.058766-15.044074-30.088149-22.064642-10.029383-8.023506-21.061704-15.044074-31.091087-22.064643 12.03526-9.026445 23.067581-17.049951 35.10284-26.076396 12.03526-8.023506 23.067581-16.047013 35.102841-25.073457 11.032321-9.026445 23.067581-18.052889 34.099902-27.079334 11.032321-9.026445 21.061704-18.052889 30.088149-28.082272 19.055828-19.055828 28.082272-36.105779 28.082272-53.15573 0-17.049951-5.014691-33.096964-16.047013-48.141038s-27.079334-29.085211-47.1381-43.126347-41.12047-27.079334-64.188051-39.114593c4.011753-5.014691 9.026445-10.029383 13.038198-15.044075s9.026445-10.029383 13.038198-15.044074c5.014691-5.014691 9.026445-11.032321 14.041136-16.047013 5.014691-5.014691 9.026445-10.029383 14.041136-15.044074 37.108717 21.061704 66.193928 42.123408 87.255632 64.18805 21.061704 21.061704 36.105779 42.123408 44.129285 64.188051 9.026445 22.064643 12.03526 44.129285 8.023507 66.193928z m622.824681-29.085211c-1.002938 25.073457-2.005877 49.143976-4.011753 72.211558s-4.011753 47.1381-8.023506 71.208619c-4.011753 27.079334-9.026445 48.141038-17.049951 64.188051-8.023506 16.047013-18.052889 28.082272-30.088149 37.108716-11.032321 9.026445-25.073457 15.044074-40.117532 18.05289-15.044074 3.008815-32.094025 5.014691-50.146915 5.014691-13.038198 1.002938-39.114594 0-39.114593 0H712.08619c-14.041136 0-28.082272 0-41.12047-1.002938-13.038198 0-27.079334-1.002938-41.12047-1.002938 0-4.011753 0-8.023506-1.002939-12.03526 0-4.011753-1.002938-8.023506-1.002938-12.035259-1.002938-5.014691-1.002938-9.026445-1.002938-13.038198s0-8.023506-1.002938-12.03526h75.220372c8.023506 0 16.047013 0 24.070519-1.002938 16.047013-1.002938 29.085211-3.008815 41.12047-7.020568 12.03526-3.008815 22.064643-9.026445 29.085211-17.049951 8.023506-8.023506 14.041136-18.052889 18.052889-31.091087 4.011753-13.038198 6.01763-29.085211 6.01763-49.143977l4.011753-149.437806c1.002938-20.058766 1.002938-40.117532 1.002938-61.179236 0-21.061704-2.005877-40.117532-7.020568-57.167483-5.014691-17.049951-13.038198-32.094025-24.070519-45.132223-11.032321-12.03526-27.079334-21.061704-48.141038-25.073458-16.047013-3.008815-31.091087-5.014691-47.1381-5.014691s-32.094025 2.005877-48.141038 3.008815c-16.047013 1.002938-32.094025 2.005877-47.1381 5.014691-16.047013 2.005877-32.094025 4.011753-49.143977 5.014692-3.008815 0-5.014691 0-9.026444 1.002938-3.008815 1.002938-6.01763 1.002938-10.029383 1.002938-3.008815 1.002938-5.014691 2.005877-9.026445 3.008815-3.008815 1.002938-7.020568 2.005877-10.029383 3.008815l50.146915 38.111655-41.12047 38.111656h250.734574v50.146914h-150.440745v60.176298h150.440745v40.117532h-150.440745v104.305583c6.01763-2.005877 12.03526-3.008815 18.05289-5.014692l18.052889-3.008815c6.01763-2.005877 12.03526-3.008815 18.052889-4.011753 6.01763-1.002938 12.03526-2.005877 18.05289-4.011753-3.008815-3.008815-5.014691-6.01763-7.020568-9.026445-2.005877-3.008815-4.011753-7.020568-7.020569-9.026444-2.005877-3.008815-4.011753-7.020568-6.017629-10.029383-2.005877-3.008815-4.011753-6.01763-6.01763-10.029383 5.014691-2.005877 10.029383-4.011753 14.041136-5.014692 5.014691-2.005877 10.029383-4.011753 16.047013-7.020568 5.014691-2.005877 10.029383-3.008815 15.044074-5.014691s10.029383-3.008815 15.044075-5.014692c12.03526 7.020568 22.064643 15.044074 30.088149 23.067581 8.023506 8.023506 15.044074 17.049951 19.055827 27.079334 5.014691 10.029383 7.020568 20.058766 9.026445 30.088149 1.002938 10.029383 1.002938 22.064643-2.005877 34.099902-4.011753 4.011753-9.026445 8.023506-14.041136 12.03526-5.014691 4.011753-9.026445 8.023506-14.041136 11.032321-5.014691 4.011753-10.029383 7.020568-15.044075 11.032321-5.014691 4.011753-9.026445 8.023506-14.041136 11.032321-3.008815-3.008815-5.014691-7.020568-8.023506-12.035259-2.005877-4.011753-5.014691-9.026445-7.020568-13.038198-3.008815-3.008815-5.014691-7.020568-8.023506-12.03526-2.005877-4.011753-5.014691-9.026445-7.020569-13.038197-71.208619 25.073457-132.387855 42.123408-182.534769 50.146914-50.146915 8.023506-91.267385 9.026445-121.355534 1.002939-30.088149-9.026445-50.146915-25.073457-59.17336-50.146915-9.026445-24.070519-8.023506-58.170421 4.011754-100.29383h104.305582c0 17.049951 1.002938 30.088149 3.008815 40.117532 2.005877 10.029383 5.014691 18.052889 8.023507 24.070519 5.014691 5.014691 10.029383 9.026445 16.047012 11.032321 6.01763 2.005877 14.041136 4.011753 23.067581 5.014692h5.014692v-120.352596h-140.411362v-40.117531h140.411362v-60.176298h-20.058766v-7.020568l-66.193928 60.176298-54.158668-27.079334 105.308521-135.39667c-11.032321 4.011753-22.064643 10.029383-32.094025 16.047012-10.029383 6.01763-20.058766 13.038198-30.088149 20.058766-9.026445 7.020568-17.049951 15.044074-25.073457 23.067581-8.023506 8.023506-15.044074 16.047013-23.067581 25.073457-1.002938 3.008815-2.005877 5.014691-3.008815 7.020569-1.002938 2.005877-2.005877 5.014691-3.008815 7.020568l-3.008815 6.017629c-1.002938 2.005877-2.005877 5.014691-3.008815 7.020568-7.020568-5.014691-13.038198-10.029383-20.058766-15.044074-6.01763-5.014691-13.038198-9.026445-20.058766-14.041136-6.01763-5.014691-13.038198-9.026445-19.055827-14.041136l-21.061705-15.044075c11.032321-17.049951 21.061704-33.096964 32.094026-50.146914 11.032321-16.047013 22.064643-33.096964 32.094025-50.146915 11.032321-16.047013 22.064643-32.094025 32.094026-48.141038 11.032321-16.047013 22.064643-33.096964 32.094025-50.146915l27.079334 9.026444 27.079334 9.026445 27.079334 9.026445 27.079334 9.026444c-3.008815 5.014691-5.014691 10.029383-7.020568 15.044075-2.005877 5.014691-4.011753 10.029383-7.020568 14.041136l-6.01763 15.044074c-2.005877 5.014691-4.011753 9.026445-6.017629 14.041137 42.123408-19.055828 89.261508-34.099902 141.414299-43.126347 51.149853-9.026445 99.290891-11.032321 144.423115-6.01763 44.129285 4.011753 82.24094 18.052889 113.332027 40.117532 31.091087 22.064643 49.143976 55.161606 52.152792 98.287953 3.008815 28.082272 4.011753 55.161606 5.014691 81.238002 8.023506 26.076396 8.023506 51.149853 7.020568 76.22331z" fill="#FFFFFF" p-id="17394"></path></svg>