<?xml version="1.0" standalone="no"?><!DOCTYPE svg PUBLIC "-//W3C//DTD SVG 1.1//EN" "http://www.w3.org/Graphics/SVG/1.1/DTD/svg11.dtd"><svg t="1567823648987" class="icon" viewBox="0 0 1024 1024" version="1.1" xmlns="http://www.w3.org/2000/svg" p-id="1267" xmlns:xlink="http://www.w3.org/1999/xlink" width="200" height="200"><defs><style type="text/css"></style></defs><path d="M124.66087 258.226087l171.408695 171.408696 171.408696-171.408696-171.408696-171.408696-171.408695 171.408696zM82.365217 215.930435L253.773913 44.521739C278.26087 20.034783 316.104348 20.034783 340.591304 44.521739L512 215.930435c24.486957 24.486957 24.486957 62.330435 0 86.817391l-171.408696 171.408696c-24.486957 24.486957-62.330435 24.486957-86.817391 0l-171.408696-171.408696c-24.486957-24.486957-24.486957-62.330435 0-86.817391zM894.886957 968.347826H614.4c-28.93913 0-53.426087-24.486957-53.426087-53.426087V614.4c0-28.93913 24.486957-53.426087 53.426087-53.426087h282.713043c28.93913 0 53.426087 24.486957 53.426087 53.426087v300.521739c0 28.93913-24.486957 53.426087-55.652173 53.426087zM906.017391 476.382609H625.530435c-28.93913 0-53.426087-24.486957-53.426087-53.426087V120.208696c0-28.93913 24.486957-53.426087 53.426087-53.426087h282.713043c28.93913 0 53.426087 24.486957 53.426087 53.426087v300.521739c0 31.165217-24.486957 55.652174-55.652174 55.652174zM438.53913 968.347826H155.826087c-28.93913 0-53.426087-24.486957-53.426087-53.426087V614.4c0-28.93913 24.486957-53.426087 53.426087-53.426087h282.713043c28.93913 0 53.426087 24.486957 53.426087 53.426087v300.521739c0 28.93913-24.486957 53.426087-53.426087 53.426087z" p-id="1268" fill="#67C23A"></path></svg>