<?xml version="1.0" standalone="no"?><!DOCTYPE svg PUBLIC "-//W3C//DTD SVG 1.1//EN" "http://www.w3.org/Graphics/SVG/1.1/DTD/svg11.dtd"><svg t="1568984008205" class="icon" viewBox="0 0 1024 1024" version="1.1" xmlns="http://www.w3.org/2000/svg" p-id="16517" xmlns:xlink="http://www.w3.org/1999/xlink" width="200" height="200"><defs><style type="text/css"></style></defs><path d="M508.528814 916.39322l-5.727458-1.909152c-13.537627-4.859661-329.762712-119.755932-329.762712-328.721356v-347.118644l336.010848-130.169492 343.821016 129.995932v347.118645c0 209.312542-324.208814 324.035254-338.093559 328.894915zM207.229831 262.074576v323.688136c0 170.435254 259.297627 277.694915 301.472542 293.835932 42.869153-16.141017 308.935593-123.400678 308.935593-294.009491V262.074576l-308.935593-116.805423zM508.528814 819.720678l-5.901017-2.256271c-5.380339-2.082712-131.210847-49.811525-199.593221-133.640678l-8.851525-10.760678 8.504407-10.934237c44.778305-57.621695 107.259661-91.986441 167.311186-91.986441h76.71322c74.630508 0 138.847458 49.637966 172.344407 92.16l8.504407 10.934237-8.677966 10.587119c-69.423729 84.002712-199.419661 131.731525-204.973559 133.640678z m-170.088136-147.178305c55.886102 60.745763 145.789831 100.143729 169.741017 110.03661 24.471864-9.719322 118.020339-49.117288 174.427119-110.03661a192.824407 192.824407 0 0 0-135.89695-67.688136h-77.407457a180.154576 180.154576 0 0 0-130.863729 67.688136z m169.393898-122.359322a129.475254 129.475254 0 1 1 133.467119-129.301695 129.995932 129.995932 0 0 1-132.772881 129.301695z m0-224.065085a94.76339 94.76339 0 1 0 98.755255 94.76339 95.804746 95.804746 0 0 0-98.061017-94.76339z" fill="#0382CA" p-id="16518"></path><path d="M512 1024A512 512 0 1 1 1024 512 512.520678 512.520678 0 0 1 512 1024z m0-989.288136A477.288136 477.288136 0 1 0 989.288136 512 477.982373 477.982373 0 0 0 512 34.711864z" fill="#0382CA" p-id="16519"></path></svg>